<?xml version="1.0" encoding="UTF-8" standalone="no"?> <svg width="64" height="64" viewBox="0 0 64 64" fill="none" xmlns="http://www.w3.org/2000/svg">
<path d="M34 27C36.6522 27 39.1957 28.0536 41.0711 29.9289C42.9464 31.8043 44 34.3478 44 37V41C44 43.3869 43.0518 45.6761 41.364 47.364C39.6761 49.0518 37.3869 50 35 50H33C30.6131 50 28.3239 49.0518 26.636 47.364C24.9482 45.6761 24 43.3869 24 41V37C24 34.3478 25.0536 31.8043 26.9289 29.9289C28.8043 28.0536 31.3478 27 34 27V27Z" fill="#4891D3"/>
<path d="M43.95 41.93C43.72 44.1437 42.678 46.1937 41.025 47.6841C39.3721 49.1745 37.2256 49.9995 35 50H33C30.6131 50 28.3239 49.0518 26.636 47.364C24.9482 45.6761 24 43.3869 24 41V37C24 34.3478 25.0536 31.8043 26.9289 29.9289C28.8043 28.0536 31.3478 27 34 27C34.5294 26.9973 35.0581 27.0408 35.58 27.13C35.4175 27.6959 35.3771 28.29 35.4616 28.8727C35.546 29.4554 35.7534 30.0135 36.07 30.51C36.363 30.9801 36.7494 31.385 37.2052 31.6998C37.661 32.0146 38.1766 32.2325 38.72 32.34C39.6465 32.528 40.4799 33.0295 41.08 33.76C41.6759 34.4877 42.001 35.3995 42 36.34V38.47C41.9995 39.1658 42.1788 39.85 42.5205 40.4562C42.8621 41.0624 43.3545 41.57 43.95 41.93Z" fill="#2D72BC"/>
<path d="M29 45H39C40.5913 45 42.1174 45.6321 43.2426 46.7574C44.3679 47.8826 45 49.4087 45 51V61H23V51C23 49.4087 23.6321 47.8826 24.7574 46.7574C25.8826 45.6321 27.4087 45 29 45V45Z" fill="#57B7EB"/>
<path d="M45 57V61H23V51C23 49.4087 23.6321 47.8826 24.7574 46.7574C25.8826 45.6321 27.4087 45 29 45V48C29 50.3869 29.9482 52.6761 31.636 54.364C33.3239 56.0518 35.6131 57 38 57H45Z" fill="#4891D3"/>
<path d="M28 55H23V61H28V55Z" fill="#F9E109"/>
<path d="M37 46L34 49L31 46V43H37V46Z" fill="#FCBC04"/>
<path d="M45 55H40V61H45V55Z" fill="#F9E109"/>
<path d="M39 45L37 52L34 49L37 46V45H39Z" fill="#4891D3"/>
<path d="M29 45V52L34 49L31 46V45H29Z" fill="#4891D3"/>
<path d="M37 44.46C35.9903 45.3774 34.6927 45.9148 33.33 45.98C34.1754 46.4226 35.1158 46.6525 36.07 46.65C36.1668 46.6518 36.2636 46.6485 36.36 46.64L34 49L31 46V43H37V44.46Z" fill="#E59730"/>
<path d="M34 45C32.4087 45 30.8826 44.3679 29.7574 43.2426C28.6321 42.1174 28 40.5913 28 39V34H29.172C30.0687 34.0001 30.9566 33.8235 31.785 33.4803C32.6134 33.1372 33.3661 32.6341 34 32V32C34.6339 32.6341 35.3866 33.1372 36.215 33.4803C37.0434 33.8235 37.9313 34.0001 38.828 34H40V39C40 40.5913 39.3679 42.1174 38.2426 43.2426C37.1174 44.3679 35.5913 45 34 45Z" fill="#F9E109"/>
<path d="M30 35.94V37C30.0002 38.064 30.2833 39.1087 30.8203 40.0273C31.3573 40.9458 32.1289 41.7049 33.056 42.227C33.9831 42.7491 35.0323 43.0152 36.0961 42.9982C37.16 42.9811 38.2001 42.6815 39.11 42.13C38.4287 43.246 37.4012 44.1086 36.1841 44.5863C34.967 45.0641 33.6271 45.1307 32.3686 44.7762C31.1101 44.4216 30.002 43.6653 29.2133 42.6225C28.4246 41.5796 27.9985 40.3075 28 39V34H29.17C30.9814 33.9997 32.7186 33.2804 34 32C35.2814 33.2804 37.0186 33.9997 38.83 34H40V36H38.83C37.0186 35.9997 35.2814 35.2804 34 34C32.922 35.0771 31.5132 35.7604 30 35.94V35.94Z" fill="#FCBC04"/>
<path d="M39 45L38 51L34 49L37 46V45H39Z" fill="#84D2F4"/>
<path d="M29 45L30 51L34 49L31 46V45H29Z" fill="#84D2F4"/>
<path d="M40 52V58H38V54C38 53.4696 38.2107 52.9609 38.5858 52.5858C38.9609 52.2107 39.4696 52 40 52Z" fill="#4891D3"/>
<path d="M45 55V57H44C43.4701 57.0016 42.9623 57.2128 42.5875 57.5875C42.2128 57.9623 42.0016 58.4701 42 59V61H40V55H45Z" fill="#FCBC04"/>
<path d="M23 55V57H24C24.5299 57.0016 25.0377 57.2128 25.4125 57.5875C25.7872 57.9623 25.9984 58.4701 26 59V61H28V55H23Z" fill="#FCBC04"/>
<path d="M32 39C32.5523 39 33 38.5523 33 38C33 37.4477 32.5523 37 32 37C31.4477 37 31 37.4477 31 38C31 38.5523 31.4477 39 32 39Z" fill="#2D72BC"/>
<path d="M36 39C36.5523 39 37 38.5523 37 38C37 37.4477 36.5523 37 36 37C35.4477 37 35 37.4477 35 38C35 38.5523 35.4477 39 36 39Z" fill="#2D72BC"/>
<path d="M34 55C34.5523 55 35 54.5523 35 54C35 53.4477 34.5523 53 34 53C33.4477 53 33 53.4477 33 54C33 54.5523 33.4477 55 34 55Z" fill="#84D2F4"/>
<path d="M34 59C34.5523 59 35 58.5523 35 58C35 57.4477 34.5523 57 34 57C33.4477 57 33 57.4477 33 58C33 58.5523 33.4477 59 34 59Z" fill="#57B7EB"/>
<path d="M40 10C39.9998 9.63306 39.9664 9.26689 39.9 8.906L41.066 8.232L39.066 4.768L37.9 5.442C37.3396 4.96343 36.6954 4.59284 36 4.349V3H32V4.349C31.3064 4.5934 30.6639 4.96396 30.105 5.442L28.938 4.768L26.938 8.232L28.104 8.906C27.9653 9.62874 27.9653 10.3713 28.104 11.094L26.938 11.768L28.938 15.232L30.105 14.558C30.6639 15.036 31.3064 15.4066 32 15.651V17H36V15.651C36.6954 15.4072 37.3396 15.0366 37.9 14.558L39.067 15.232L41.067 11.768L39.9 11.094C39.9664 10.7331 39.9998 10.3669 40 10V10ZM34 12C33.6044 12 33.2178 11.8827 32.8889 11.6629C32.56 11.4432 32.3036 11.1308 32.1522 10.7654C32.0009 10.3999 31.9613 9.99778 32.0384 9.60982C32.1156 9.22186 32.3061 8.86549 32.5858 8.58579C32.8655 8.30608 33.2219 8.1156 33.6098 8.03843C33.9978 7.96126 34.3999 8.00087 34.7654 8.15224C35.1308 8.30362 35.4432 8.55996 35.6629 8.88886C35.8827 9.21776 36 9.60444 36 10C36 10.5304 35.7893 11.0391 35.4142 11.4142C35.0391 11.7893 34.5304 12 34 12Z" fill="#F9E109"/>
<path d="M54 23.933L56.163 28.316L61 29.019L57.5 32.431L58.326 37.248L54 34.974L49.674 37.248L50.5 32.431L47 29.019L51.837 28.316L54 23.933Z" fill="#F9E109"/>
<path d="M11 42L15 46H13V50C13 50.5304 13.2107 51.0391 13.5858 51.4142C13.9609 51.7893 14.4696 52 15 52H19V56H15C13.4087 56 11.8826 55.3679 10.7574 54.2426C9.63214 53.1174 9 51.5913 9 50V46H7L11 42Z" fill="#C4F236"/>
<path d="M21.5 8.5L17.5 12.5V10.5H13.5C12.9696 10.5 12.4609 10.7107 12.0858 11.0858C11.7107 11.4609 11.5 11.9696 11.5 12.5V16.5H7.5V12.5C7.5 10.9087 8.13214 9.38258 9.25736 8.25736C10.3826 7.13214 11.9087 6.5 13.5 6.5H17.5V4.5L21.5 8.5Z" fill="#C4F236"/>
<path d="M54 19L50 15H52V11C52 10.4696 51.7893 9.96086 51.4142 9.58579C51.0391 9.21071 50.5304 9 50 9H46V5H50C51.5913 5 53.1174 5.63214 54.2426 6.75736C55.3679 7.88258 56 9.4087 56 11V15H58L54 19Z" fill="#C4F236"/>
<path d="M47 52L51 48V50H53C53.5304 50 54.0391 49.7893 54.4142 49.4142C54.7893 49.0391 55 48.5304 55 48V44H59V48C59 49.5913 58.3679 51.1174 57.2426 52.2426C56.1174 53.3679 54.5913 54 53 54H51V56L47 52Z" fill="#C4F236"/>
<path d="M11 36C10.0489 35.3656 8.98217 34.9249 7.86068 34.703C6.73919 34.4812 5.58497 34.4825 4.464 34.707L3 35V23H8C8.79565 23 9.55871 23.3161 10.1213 23.8787C10.6839 24.4413 11 25.2044 11 26V36Z" fill="#84D2F4"/>
<path d="M19 35L17.536 34.707C16.415 34.4825 15.2608 34.4812 14.1393 34.703C13.0178 34.9249 11.9511 35.3656 11 36V36V26C11 25.2044 11.3161 24.4413 11.8787 23.8787C12.4413 23.3161 13.2044 23 14 23H19V35Z" fill="#84D2F4"/>
<path d="M19 33.0001V35.0001L17.54 34.7101C16.4187 34.4834 15.2636 34.4807 14.1412 34.702C13.0188 34.9234 11.9513 35.3646 11 36.0001V26.0001C10.997 25.38 11.1883 24.7746 11.547 24.2688C11.9057 23.763 12.4138 23.3823 13 23.1801V29.6201C13.0124 30.4045 13.335 31.1522 13.8972 31.6994C14.4594 32.2466 15.2155 32.5489 16 32.5401C16.5173 32.5522 17.0325 32.609 17.54 32.7101L19 33.0001Z" fill="#57B7EB"/>
<path d="M11 26V36C10.0487 35.3645 8.98119 34.9234 7.8588 34.702C6.73642 34.4806 5.58133 34.4833 4.46 34.71L3 35V23H5V29.7C4.99863 30.4116 5.25196 31.1002 5.71416 31.6413C6.17636 32.1823 6.81692 32.5402 7.52 32.65C8.38142 32.7883 9.21733 33.0545 10 33.44V23.77C10.3169 24.0482 10.5702 24.3914 10.7427 24.7762C10.9152 25.1609 11.003 25.5783 11 26V26Z" fill="#57B7EB"/>
<path d="M19 28H15C14.7348 28 14.4804 27.8946 14.2929 27.7071C14.1054 27.5196 14 27.2652 14 27C14 26.7348 14.1054 26.4804 14.2929 26.2929C14.4804 26.1054 14.7348 26 15 26H19V28Z" fill="#F9E109"/>
<path d="M19 32H15C14.7348 32 14.4804 31.8946 14.2929 31.7071C14.1054 31.5196 14 31.2652 14 31C14 30.7348 14.1054 30.4804 14.2929 30.2929C14.4804 30.1054 14.7348 30 15 30H19V32Z" fill="#F9E109"/>
<path d="M3 26H7C7.26522 26 7.51957 26.1054 7.70711 26.2929C7.89464 26.4804 8 26.7348 8 27C8 27.2652 7.89464 27.5196 7.70711 27.7071C7.51957 27.8946 7.26522 28 7 28H3V26Z" fill="#F9E109"/>
<path d="M3 30H7C7.26522 30 7.51957 30.1054 7.70711 30.2929C7.89464 30.4804 8 30.7348 8 31C8 31.2652 7.89464 31.5196 7.70711 31.7071C7.51957 31.8946 7.26522 32 7 32H3V30Z" fill="#F9E109"/>
<path d="M5 26H3V28H5V26Z" fill="#FCBC04"/>
<path d="M6.08 32H3V30H5.01C5.09437 30.78 5.47793 31.4969 6.08 32V32Z" fill="#FCBC04"/>
<path d="M55.76 17.24L54 19L50 15H52V11C51.9984 10.4701 51.7872 9.96227 51.4125 9.58753C51.0377 9.2128 50.5299 9.00158 50 9H46V5H48C48.0016 5.52995 48.2128 6.03773 48.5875 6.41247C48.9623 6.7872 49.4701 6.99842 50 7C50.5255 6.99934 51.0459 7.10236 51.5315 7.30314C52.0171 7.50393 52.4583 7.79854 52.8299 8.1701C53.2015 8.54167 53.4961 8.98289 53.6969 9.46849C53.8976 9.95409 54.0007 10.4745 54 11V13C53.9976 13.7881 54.152 14.5689 54.4541 15.2968C54.7563 16.0247 55.2002 16.6852 55.76 17.24V17.24Z" fill="#A1D51C"/>
<path d="M54 23.933L53.664 27.3C53.6123 27.8175 53.6961 28.3395 53.9071 28.8149C54.118 29.2902 54.449 29.7026 54.8674 30.0115C55.2858 30.3204 55.7773 30.5152 56.2937 30.5768C56.8101 30.6384 57.3337 30.5647 57.813 30.363L61 29.019L57.5 32.431L58.326 37.248L54 34.974L49.674 37.248L50.5 32.431L47 29.019L51.837 28.319L54 23.933Z" fill="#FCBC04"/>
<path d="M59 44V48C59 49.5913 58.3679 51.1174 57.2426 52.2426C56.1174 53.3679 54.5913 54 53 54H51V56L47 52L48.76 50.24C49.3148 50.7998 49.9753 51.2437 50.7032 51.5459C51.4311 51.848 52.2119 52.0024 53 52C54.0609 52 55.0783 51.5786 55.8284 50.8284C56.5786 50.0783 57 49.0609 57 48V44H59Z" fill="#A1D51C"/>
<path d="M19 54V56H15C13.4087 56 11.8826 55.3679 10.7574 54.2426C9.63214 53.1174 9 51.5913 9 50V46H7L11 42V50C11 51.0609 11.4214 52.0783 12.1716 52.8284C12.9217 53.5786 13.9391 54 15 54H19Z" fill="#A1D51C"/>
<path d="M17.5 12.5V10.5H13.5C13.3308 10.498 13.1622 10.5216 13 10.57V10.5C12.4745 10.4994 11.9541 10.6024 11.4685 10.8032C10.9829 11.004 10.5417 11.2986 10.1701 11.6701C9.79854 12.0417 9.50393 12.4829 9.30314 12.9685C9.10236 13.4541 8.99934 13.9746 9 14.5V16.5H7.5V12.5C7.50123 11.1474 7.95909 9.83481 8.79942 8.77487C9.63974 7.71494 10.8133 6.96975 12.13 6.66003C12.5976 7.23529 13.1876 7.69897 13.8571 8.01728C14.5266 8.33559 15.2587 8.50052 16 8.50003H21.5L17.5 12.5Z" fill="#A1D51C"/>
<path d="M36.5 14C34.5109 14 32.6032 13.2098 31.1967 11.8033C29.7902 10.3968 29 8.48914 29 6.50002C29 5.96218 29.057 5.42585 29.17 4.90002L28.94 4.77002L26.94 8.23002L28.1 8.91002C27.9667 9.63057 27.9667 10.3695 28.1 11.09L26.94 11.77L28.94 15.23L30.1 14.56C30.6635 15.0334 31.3069 15.4026 32 15.65V17H36V15.65C36.6931 15.4026 37.3365 15.0334 37.9 14.56L39.06 15.23L40.42 12.88C39.2444 13.6139 37.8859 14.002 36.5 14V14Z" fill="#FCBC04"/>
</svg>
