<svg id="svg" version="1.1" xmlns="http://www.w3.org/2000/svg" xmlns:xlink="http://www.w3.org/1999/xlink" width="400" height="400" viewBox="0, 0, 400,400"><g id="svgg"><path id="path0" d="M193.700 37.846 C 193.306 38.020,193.200 44.564,193.200 68.631 L 193.200 99.195 195.016 97.809 C 196.629 96.578,197.794 95.947,200.600 94.788 C 202.594 93.964,206.716 93.481,208.307 93.885 C 210.231 94.374,210.616 94.185,210.920 92.600 C 211.142 91.444,211.614 89.462,212.418 86.300 C 212.628 85.475,212.964 84.125,213.164 83.300 C 214.127 79.334,214.853 76.491,215.182 75.400 C 215.380 74.740,216.575 69.999,217.836 64.864 C 219.206 59.284,220.468 55.019,220.972 54.264 C 223.468 50.525,228.890 50.839,231.173 54.854 C 232.353 56.929,232.290 57.393,229.160 69.800 C 227.606 75.960,226.169 81.675,225.967 82.500 C 225.765 83.325,225.420 84.720,225.200 85.600 C 224.980 86.480,224.620 87.920,224.400 88.800 C 224.180 89.680,223.820 91.120,223.600 92.000 C 223.380 92.880,223.028 94.275,222.818 95.100 C 222.608 95.925,222.278 97.334,222.085 98.231 C 221.891 99.128,221.603 100.071,221.445 100.327 C 221.286 100.584,221.667 101.560,222.291 102.497 C 224.624 106.002,225.259 108.180,225.295 112.807 L 225.323 116.400 260.829 116.400 C 280.357 116.400,296.619 116.291,296.967 116.157 C 297.819 115.830,297.950 38.674,297.100 38.124 C 296.548 37.766,194.501 37.492,193.700 37.846 M42.400 64.800 C 42.400 65.020,42.143 65.200,41.829 65.200 C 41.515 65.200,40.705 65.871,40.029 66.691 L 38.800 68.182 38.800 169.491 L 38.800 270.800 51.200 270.800 L 63.600 270.800 63.600 167.600 L 63.600 64.400 53.000 64.400 C 46.200 64.400,42.400 64.543,42.400 64.800 M336.400 167.600 L 336.400 270.800 343.000 270.800 L 349.600 270.800 349.600 169.619 C 349.600 95.626,349.479 68.137,349.150 67.319 C 347.873 64.142,348.493 64.400,342.132 64.400 L 336.400 64.400 336.400 167.600 M132.000 77.200 C 131.670 77.413,130.993 77.591,130.495 77.594 C 129.997 77.597,129.277 77.760,128.895 77.956 C 128.513 78.152,127.300 78.732,126.200 79.245 C 109.177 87.187,114.683 114.103,133.697 115.894 C 140.998 116.582,152.800 109.621,152.800 104.628 C 152.800 104.283,152.980 104.000,153.200 104.000 C 153.420 104.000,153.600 103.561,153.600 103.024 C 153.600 102.487,153.780 101.936,154.000 101.800 C 154.557 101.456,154.510 92.306,153.943 90.919 C 151.797 85.658,148.048 80.956,144.900 79.575 C 144.185 79.261,143.600 78.869,143.600 78.702 C 143.600 78.536,143.161 78.400,142.624 78.400 C 142.087 78.400,141.536 78.220,141.400 78.000 C 141.264 77.780,140.544 77.600,139.800 77.600 C 139.056 77.600,138.336 77.420,138.200 77.200 C 137.883 76.688,132.793 76.688,132.000 77.200 M203.506 107.061 C 202.022 107.844,200.703 109.724,199.623 112.600 C 198.440 115.750,198.187 116.406,197.694 117.600 C 197.467 118.150,197.064 119.230,196.800 120.000 C 196.218 121.693,195.629 123.160,195.153 124.095 C 194.524 125.332,194.733 126.400,195.605 126.400 C 196.048 126.400,196.723 126.564,197.105 126.764 C 197.487 126.964,199.420 127.609,201.400 128.197 C 203.380 128.785,205.360 129.403,205.800 129.572 C 206.960 130.017,207.600 129.667,207.600 128.590 C 207.600 128.072,207.780 127.536,208.000 127.400 C 208.220 127.264,208.400 126.803,208.400 126.376 C 208.400 125.949,208.580 125.600,208.800 125.600 C 209.020 125.600,209.200 125.186,209.200 124.680 C 209.200 124.174,209.343 123.589,209.518 123.380 C 209.693 123.171,210.065 122.280,210.345 121.400 C 210.889 119.685,211.462 118.249,212.074 117.061 C 212.284 116.655,212.398 116.287,212.328 116.244 C 212.257 116.201,211.390 115.762,210.400 115.269 C 207.799 113.972,206.800 112.235,206.800 109.006 C 206.800 106.105,206.102 105.693,203.506 107.061 M130.000 128.996 C 123.609 130.195,122.971 130.616,125.057 132.258 C 125.856 132.886,127.610 134.279,128.955 135.353 C 134.491 139.773,136.348 139.622,143.114 134.200 C 147.441 130.733,147.491 130.636,145.286 130.004 C 139.943 128.471,134.654 128.123,130.000 128.996 M141.600 239.000 L 141.600 271.600 232.400 271.600 L 323.200 271.600 323.200 239.000 L 323.200 206.400 232.400 206.400 L 141.600 206.400 141.600 239.000 M193.539 220.879 C 198.368 222.671,202.267 226.362,204.545 231.300 L 205.238 232.800 255.319 232.801 C 304.586 232.803,305.421 232.816,306.704 233.598 C 310.179 235.717,310.698 240.123,307.812 243.009 L 306.024 244.797 255.712 244.898 L 205.400 245.000 204.031 247.600 C 199.601 256.015,188.145 260.509,180.705 256.751 C 180.323 256.558,179.835 256.400,179.619 256.400 C 179.111 256.400,176.079 254.474,174.516 253.159 C 172.886 251.788,170.509 248.634,169.768 246.862 C 168.934 244.865,168.775 244.813,163.489 244.806 L 158.779 244.800 156.989 243.011 C 155.290 241.311,155.200 241.107,155.200 238.948 C 155.200 234.346,157.457 232.800,164.174 232.800 L 168.788 232.800 170.022 230.357 C 174.351 221.781,184.713 217.605,193.539 220.879 M184.160 232.762 C 178.433 235.363,179.516 244.264,185.700 245.411 C 193.399 246.839,196.967 236.354,189.993 232.796 C 188.055 231.808,186.285 231.797,184.160 232.762 M12.000 288.242 C 12.000 299.145,16.313 305.843,25.652 309.445 C 27.153 310.024,29.810 310.153,44.478 310.360 L 61.557 310.600 62.995 311.994 C 63.936 312.907,64.645 314.120,65.048 315.506 L 65.663 317.623 70.932 317.511 L 76.200 317.400 76.323 316.400 C 76.519 314.814,77.442 313.098,78.798 311.800 L 80.052 310.600 226.406 310.400 C 342.742 310.241,372.863 310.097,373.260 309.700 C 373.535 309.425,374.049 309.200,374.401 309.200 C 375.875 309.200,379.578 306.873,382.112 304.355 C 386.440 300.052,388.000 295.785,388.000 288.244 L 388.000 284.127 379.536 283.864 C 374.880 283.719,290.280 283.600,191.536 283.600 L 12.000 283.600 12.000 288.242 M161.200 342.598 L 161.200 362.400 170.720 362.400 C 177.591 362.400,180.374 362.266,180.720 361.920 C 181.061 361.579,181.200 359.141,181.200 353.495 C 181.200 342.985,182.281 340.583,188.486 337.314 L 190.600 336.200 200.000 336.202 C 210.614 336.205,211.202 336.341,214.964 339.652 C 218.388 342.666,218.912 344.444,219.173 353.954 L 219.400 362.200 229.091 362.307 L 238.781 362.414 239.002 361.507 C 239.123 361.008,239.172 352.140,239.111 341.800 L 239.000 323.000 200.100 322.898 L 161.200 322.796 161.200 342.598 M193.200 355.600 L 193.200 362.400 200.000 362.400 L 206.800 362.400 206.800 355.600 L 206.800 348.800 200.000 348.800 L 193.200 348.800 193.200 355.600 M115.600 381.200 L 115.600 388.000 175.265 388.000 L 234.930 388.000 236.580 388.967 C 238.263 389.954,238.760 390.653,239.654 393.300 L 240.161 394.800 245.318 394.800 C 250.183 394.800,250.487 394.753,250.690 393.979 C 252.197 388.213,252.842 388.015,270.100 388.007 L 284.400 388.000 284.400 381.200 L 284.400 374.400 200.000 374.400 L 115.600 374.400 115.600 381.200 " stroke="none" fill="#e4d3e5" fill-rule="evenodd"></path><path id="path1" d="M81.000 12.595 C 79.318 13.385,78.628 14.005,77.652 15.607 L 76.803 17.000 76.801 105.300 L 76.800 193.600 83.600 193.600 L 90.400 193.600 90.400 174.977 C 90.400 164.735,90.565 155.600,90.767 154.677 C 90.969 153.755,91.359 151.920,91.634 150.600 C 91.909 149.280,92.252 148.020,92.395 147.800 C 92.539 147.580,92.908 146.590,93.217 145.600 C 95.425 138.515,104.121 127.294,109.668 124.371 C 110.181 124.101,110.690 123.759,110.800 123.610 C 110.910 123.462,111.765 122.916,112.700 122.397 C 114.829 121.215,114.820 120.973,112.561 118.783 C 93.389 100.196,106.139 66.440,133.000 64.669 C 158.754 62.971,175.918 90.760,162.723 112.789 C 160.915 115.808,160.547 116.281,157.716 119.235 L 155.958 121.070 166.587 128.135 C 178.610 136.126,177.676 135.684,178.346 133.700 C 178.625 132.875,179.003 131.840,179.187 131.400 C 179.371 130.960,179.917 129.520,180.400 128.200 C 180.883 126.880,181.419 125.440,181.591 125.000 C 181.763 124.560,182.079 123.750,182.294 123.200 C 182.587 122.447,182.500 121.771,181.942 120.467 C 181.235 118.816,181.200 116.750,181.200 76.979 L 181.200 35.224 182.191 33.057 C 183.441 30.325,186.506 27.517,189.434 26.422 C 192.053 25.442,297.919 25.093,300.281 26.056 C 303.470 27.357,304.255 27.834,305.887 29.466 C 306.863 30.442,308.098 32.227,308.631 33.432 L 309.600 35.623 309.600 76.993 C 309.600 106.696,309.473 118.678,309.150 119.481 C 308.076 122.153,307.716 122.706,305.811 124.611 C 303.966 126.456,303.336 126.882,301.000 127.864 C 300.560 128.049,282.400 128.290,260.644 128.400 C 226.024 128.575,221.048 128.675,220.775 129.200 C 220.604 129.530,220.101 130.790,219.659 132.000 C 217.525 137.837,210.709 156.045,210.001 157.800 C 209.823 158.240,209.283 159.680,208.800 161.000 C 208.317 162.320,207.778 163.760,207.601 164.200 C 207.425 164.640,207.064 165.630,206.800 166.400 C 206.536 167.170,206.133 168.250,205.906 168.800 C 205.679 169.350,205.360 170.160,205.197 170.600 C 201.633 180.239,192.018 185.376,181.888 183.053 L 180.377 182.707 180.488 188.253 L 180.600 193.800 239.000 193.924 C 271.120 193.992,303.205 193.927,310.300 193.778 L 323.200 193.508 323.200 105.377 C 323.200 47.055,323.065 17.164,322.800 17.000 C 322.580 16.864,322.400 16.468,322.400 16.120 C 322.400 15.243,320.330 13.348,318.568 12.612 C 316.437 11.722,82.895 11.705,81.000 12.595 M287.400 37.868 C 292.223 38.159,297.511 38.175,297.339 37.900 C 297.237 37.735,294.508 37.633,291.276 37.674 C 288.044 37.715,286.300 37.802,287.400 37.868 M42.503 64.047 C 40.733 64.558,38.671 66.718,38.085 68.675 C 37.711 69.923,37.600 93.276,37.600 170.952 L 37.600 271.611 51.100 271.505 L 64.600 271.400 64.709 168.400 C 64.769 111.750,64.721 64.995,64.602 64.500 L 64.385 63.600 54.092 63.636 C 48.432 63.656,43.216 63.841,42.503 64.047 M335.600 167.600 L 335.600 271.600 349.000 271.600 L 362.400 271.600 362.400 170.946 C 362.400 61.966,362.532 68.159,360.161 65.788 C 358.240 63.866,356.446 63.600,345.423 63.600 L 335.600 63.600 335.600 167.600 M63.600 167.600 L 63.600 270.800 51.200 270.800 L 38.800 270.800 38.800 169.491 L 38.800 68.182 40.029 66.691 C 40.705 65.871,41.515 65.200,41.829 65.200 C 42.143 65.200,42.400 65.020,42.400 64.800 C 42.400 64.543,46.200 64.400,53.000 64.400 L 63.600 64.400 63.600 167.600 M348.283 65.300 C 348.512 65.795,348.903 66.703,349.150 67.319 C 349.479 68.137,349.600 95.626,349.600 169.619 L 349.600 270.800 343.000 270.800 L 336.400 270.800 336.400 167.600 L 336.400 64.400 342.132 64.400 C 347.687 64.400,347.878 64.428,348.283 65.300 M205.500 93.882 C 205.995 93.978,206.805 93.978,207.300 93.882 C 207.795 93.787,207.390 93.709,206.400 93.709 C 205.410 93.709,205.005 93.787,205.500 93.882 M141.384 206.500 C 141.279 206.775,141.241 221.400,141.299 239.000 L 141.405 271.000 141.502 238.701 L 141.600 206.402 232.500 206.300 L 323.400 206.198 232.487 206.099 C 160.053 206.020,141.536 206.102,141.384 206.500 M186.105 219.887 C 186.714 219.979,187.614 219.977,188.105 219.882 C 188.597 219.787,188.100 219.711,187.000 219.714 C 185.900 219.717,185.497 219.795,186.105 219.887 M195.600 222.020 C 196.987 222.961,197.778 223.235,196.800 222.436 C 196.250 221.986,195.620 221.617,195.400 221.615 C 195.180 221.613,195.270 221.796,195.600 222.020 M173.578 225.500 L 172.200 227.000 173.700 225.622 C 175.096 224.338,175.384 224.000,175.078 224.000 C 175.012 224.000,174.337 224.675,173.578 225.500 M193.701 239.000 C 193.705 239.880,193.787 240.193,193.883 239.695 C 193.979 239.198,193.975 238.478,193.875 238.095 C 193.775 237.713,193.696 238.120,193.701 239.000 M200.378 252.300 L 199.000 253.800 200.500 252.422 C 201.896 251.138,202.184 250.800,201.878 250.800 C 201.812 250.800,201.137 251.475,200.378 252.300 M174.598 253.137 C 175.034 253.652,175.753 254.259,176.196 254.486 C 177.045 254.921,176.921 254.787,175.003 253.194 C 173.848 252.235,173.834 252.233,174.598 253.137 M183.200 257.605 C 183.530 257.816,184.325 257.991,184.967 257.994 C 186.514 258.002,186.177 257.771,184.200 257.468 C 183.110 257.301,182.791 257.345,183.200 257.605 M189.200 257.600 C 187.816 257.891,187.814 257.895,189.000 257.941 C 189.660 257.967,190.470 257.813,190.800 257.600 C 191.466 257.170,191.245 257.170,189.200 257.600 M382.285 283.893 L 387.970 284.022 388.109 287.612 L 388.248 291.202 388.224 287.501 L 388.200 283.800 382.400 283.782 L 376.600 283.765 382.285 283.893 M382.000 304.600 C 381.028 305.590,380.323 306.400,380.433 306.400 C 380.543 306.400,381.428 305.590,382.400 304.600 C 383.372 303.610,384.077 302.800,383.967 302.800 C 383.857 302.800,382.972 303.610,382.000 304.600 M369.505 310.283 C 370.002 310.379,370.722 310.375,371.105 310.275 C 371.487 310.175,371.080 310.096,370.200 310.101 C 369.320 310.105,369.007 310.187,369.505 310.283 M160.983 322.900 C 160.878 323.175,160.840 332.220,160.900 343.000 L 161.008 362.600 161.104 342.696 L 161.200 322.792 200.162 322.896 C 221.591 322.953,239.040 322.865,238.938 322.700 C 238.591 322.138,161.199 322.336,160.983 322.900 M196.500 336.298 C 198.425 336.371,201.575 336.371,203.500 336.298 C 205.425 336.225,203.850 336.165,200.000 336.165 C 196.150 336.165,194.575 336.225,196.500 336.298 M184.378 340.300 L 183.000 341.800 184.500 340.422 C 185.896 339.138,186.184 338.800,185.878 338.800 C 185.812 338.800,185.137 339.475,184.378 340.300 M196.500 348.698 C 198.425 348.771,201.575 348.771,203.500 348.698 C 205.425 348.625,203.850 348.565,200.000 348.565 C 196.150 348.565,194.575 348.625,196.500 348.698 M218.877 355.300 C 218.835 359.205,218.935 362.400,219.100 362.401 C 219.265 362.401,219.353 360.286,219.295 357.701 C 219.101 348.999,218.955 348.156,218.877 355.300 M284.561 381.200 C 284.561 384.610,284.622 386.005,284.697 384.300 C 284.772 382.595,284.772 379.805,284.697 378.100 C 284.622 376.395,284.561 377.790,284.561 381.200 M145.700 388.300 C 162.145 388.358,189.055 388.358,205.500 388.300 C 221.945 388.242,208.490 388.195,175.600 388.195 C 142.710 388.195,129.255 388.242,145.700 388.300 M262.726 388.300 C 266.755 388.365,273.235 388.365,277.126 388.299 C 281.017 388.234,277.720 388.180,269.800 388.181 C 261.880 388.181,258.697 388.234,262.726 388.300 " stroke="none" fill="#5bb0e2" fill-rule="evenodd"></path><path id="path2" d="M76.700 0.285 C 76.095 0.377,75.600 0.621,75.600 0.827 C 75.600 1.032,75.240 1.200,74.800 1.200 C 74.360 1.200,74.000 1.380,74.000 1.600 C 74.000 1.820,73.727 2.000,73.394 2.000 C 72.551 2.000,67.054 7.577,66.368 9.128 C 66.058 9.828,65.669 10.400,65.502 10.400 C 65.336 10.400,65.200 10.850,65.200 11.400 C 65.200 11.950,65.020 12.400,64.800 12.400 C 64.580 12.400,64.400 13.199,64.400 14.176 C 64.400 15.153,64.220 16.064,64.000 16.200 C 63.773 16.340,63.600 18.337,63.600 20.824 L 63.600 25.200 45.146 25.200 C 33.268 25.200,26.106 25.353,25.046 25.630 C 21.676 26.511,17.948 27.761,17.754 28.075 C 17.643 28.254,17.203 28.400,16.776 28.400 C 16.349 28.400,16.000 28.580,16.000 28.800 C 16.000 29.020,15.764 29.200,15.475 29.200 C 15.187 29.200,14.564 29.560,14.092 30.000 C 13.620 30.440,13.064 30.800,12.857 30.800 C 12.503 30.800,10.853 32.402,6.900 36.583 C 5.965 37.572,5.200 38.616,5.200 38.902 C 5.200 39.189,4.840 39.683,4.400 40.000 C 3.960 40.317,3.600 40.882,3.600 41.255 C 3.600 41.628,3.465 41.993,3.300 42.067 C 2.812 42.284,1.200 45.613,1.200 46.404 C 1.200 46.805,0.975 47.208,0.700 47.300 C -0.036 47.545,-0.036 300.855,0.700 301.100 C 0.975 301.192,1.200 301.524,1.200 301.839 C 1.200 302.153,1.360 302.723,1.556 303.105 C 1.752 303.487,2.320 304.655,2.819 305.700 C 3.318 306.745,3.877 307.600,4.063 307.600 C 4.248 307.600,4.400 307.870,4.400 308.200 C 4.400 308.530,4.550 308.800,4.732 308.800 C 4.915 308.800,5.320 309.294,5.632 309.897 C 5.945 310.500,6.740 311.565,7.400 312.264 C 8.060 312.962,9.285 314.268,10.123 315.166 C 10.960 316.065,11.865 316.800,12.134 316.800 C 12.403 316.800,12.883 317.160,13.200 317.600 C 13.517 318.040,14.097 318.400,14.488 318.400 C 14.880 318.400,15.200 318.580,15.200 318.800 C 15.200 319.020,15.560 319.200,16.000 319.200 C 16.440 319.200,16.800 319.380,16.800 319.600 C 16.800 319.820,17.160 320.000,17.600 320.000 C 18.040 320.000,18.400 320.180,18.400 320.400 C 18.400 320.620,18.760 320.800,19.200 320.800 C 19.640 320.800,20.000 320.980,20.000 321.200 C 20.000 321.420,20.529 321.600,21.176 321.600 C 21.823 321.600,22.464 321.780,22.600 322.000 C 22.736 322.220,23.647 322.400,24.624 322.400 C 25.601 322.400,26.400 322.580,26.400 322.800 C 26.400 323.061,32.469 323.200,43.808 323.200 L 61.216 323.200 62.808 322.195 C 63.684 321.642,64.400 320.922,64.400 320.595 C 64.400 320.268,64.568 320.000,64.773 320.000 C 66.194 320.000,64.690 314.580,62.692 312.500 L 61.443 311.200 46.622 311.192 C 26.624 311.182,23.752 310.634,18.492 305.830 C 16.397 303.916,13.200 299.680,13.200 298.817 C 13.200 298.581,13.038 298.077,12.839 297.695 C 11.865 295.821,11.565 293.469,11.679 288.600 L 11.800 283.400 200.000 283.400 L 388.200 283.400 388.321 288.600 C 388.468 294.869,387.865 297.496,385.384 301.400 C 382.760 305.528,378.741 308.697,374.600 309.903 C 370.252 311.170,366.757 311.200,224.061 311.200 L 80.388 311.200 79.042 312.500 C 76.138 315.306,75.490 318.982,77.531 321.080 C 79.699 323.307,77.852 323.200,114.195 323.200 L 148.000 323.200 148.000 342.200 L 148.000 361.200 131.024 361.200 C 120.137 361.200,113.959 361.343,113.800 361.600 C 113.664 361.820,113.059 362.000,112.456 362.000 C 111.260 362.000,109.208 362.820,109.203 363.300 C 109.201 363.465,108.965 363.600,108.678 363.600 C 107.903 363.600,105.200 366.207,105.200 366.954 C 105.200 367.309,105.065 367.601,104.900 367.603 C 104.541 367.607,103.600 369.544,103.600 370.280 C 103.600 370.566,103.420 370.800,103.200 370.800 C 102.944 370.800,102.800 374.467,102.800 381.000 C 102.800 387.533,102.944 391.200,103.200 391.200 C 103.420 391.200,103.600 391.650,103.600 392.200 C 103.600 392.750,103.780 393.200,104.000 393.200 C 104.220 393.200,104.400 393.560,104.400 394.000 C 104.400 394.440,104.580 394.800,104.800 394.800 C 105.020 394.800,105.200 395.025,105.200 395.300 C 105.201 395.995,106.983 398.000,107.600 398.000 C 107.878 398.000,108.457 398.405,108.887 398.900 L 109.667 399.800 173.386 399.905 L 237.105 400.010 238.353 398.844 C 239.039 398.203,239.600 397.391,239.600 397.040 C 239.600 396.688,239.780 396.400,240.000 396.400 C 240.675 396.400,240.444 395.244,239.600 394.400 C 239.160 393.960,238.800 393.193,238.800 392.696 C 238.800 391.633,237.168 389.750,235.661 389.075 C 234.864 388.718,219.742 388.550,174.800 388.400 L 115.000 388.200 115.000 381.200 L 115.000 374.200 200.000 374.200 L 285.000 374.200 285.000 381.200 L 285.000 388.200 270.400 388.400 C 253.153 388.636,252.805 388.726,251.586 393.252 C 251.357 394.103,250.996 394.800,250.785 394.800 C 249.739 394.800,250.706 397.105,252.512 398.915 L 253.625 400.030 271.979 399.915 L 290.333 399.800 291.114 398.900 C 291.543 398.405,292.122 398.000,292.400 398.000 C 293.017 398.000,294.799 395.995,294.800 395.300 C 294.800 395.025,294.980 394.800,295.200 394.800 C 295.420 394.800,295.600 394.440,295.600 394.000 C 295.600 393.560,295.780 393.200,296.000 393.200 C 296.220 393.200,296.400 392.750,296.400 392.200 C 296.400 391.650,296.580 391.200,296.800 391.200 C 297.318 391.200,297.343 371.855,296.826 370.895 C 296.621 370.513,296.217 369.615,295.929 368.900 C 295.640 368.185,295.269 367.600,295.102 367.600 C 294.936 367.600,294.800 367.309,294.800 366.954 C 294.800 365.472,289.745 362.000,287.586 362.000 C 286.960 362.000,286.336 361.820,286.200 361.600 C 286.041 361.343,279.863 361.200,268.976 361.200 L 252.000 361.200 252.000 342.200 L 252.000 323.200 312.800 323.200 C 353.067 323.200,373.600 323.065,373.600 322.800 C 373.600 322.580,374.399 322.400,375.376 322.400 C 376.353 322.400,377.264 322.220,377.400 322.000 C 377.536 321.780,378.177 321.600,378.824 321.600 C 379.471 321.600,380.000 321.420,380.000 321.200 C 380.000 320.980,380.360 320.800,380.800 320.800 C 381.240 320.800,381.600 320.620,381.600 320.400 C 381.600 320.180,381.960 320.000,382.400 320.000 C 382.840 320.000,383.200 319.820,383.200 319.600 C 383.200 319.380,383.560 319.200,384.000 319.200 C 384.440 319.200,384.800 319.020,384.800 318.800 C 384.800 318.580,385.120 318.400,385.512 318.400 C 385.903 318.400,386.483 318.040,386.800 317.600 C 387.117 317.160,387.585 316.800,387.840 316.800 C 388.597 316.800,394.000 311.098,394.000 310.300 C 394.000 310.012,394.360 309.517,394.800 309.200 C 395.240 308.883,395.600 308.393,395.600 308.112 C 395.600 307.830,395.752 307.600,395.937 307.600 C 396.123 307.600,396.682 306.745,397.181 305.700 C 397.680 304.655,398.248 303.487,398.444 303.105 C 398.640 302.723,398.800 302.153,398.800 301.839 C 398.800 301.524,399.025 301.192,399.300 301.100 C 399.699 300.967,399.800 275.231,399.800 174.200 C 399.800 73.169,399.699 47.433,399.300 47.300 C 399.025 47.208,398.800 46.805,398.800 46.404 C 398.800 45.613,397.188 42.284,396.700 42.067 C 396.535 41.993,396.400 41.628,396.400 41.255 C 396.400 40.882,396.040 40.317,395.600 40.000 C 395.160 39.683,394.800 39.189,394.800 38.902 C 394.800 38.616,394.035 37.572,393.100 36.583 C 389.147 32.402,387.497 30.800,387.143 30.800 C 386.936 30.800,386.380 30.440,385.908 30.000 C 385.436 29.560,384.813 29.200,384.525 29.200 C 384.236 29.200,384.000 29.020,384.000 28.800 C 384.000 28.580,383.651 28.400,383.224 28.400 C 382.797 28.400,382.357 28.254,382.246 28.075 C 382.052 27.761,378.324 26.511,374.954 25.630 C 373.894 25.353,366.732 25.200,354.854 25.200 L 336.400 25.200 336.400 20.824 C 336.400 18.337,336.227 16.340,336.000 16.200 C 335.780 16.064,335.600 15.254,335.600 14.400 C 335.600 13.546,335.420 12.736,335.200 12.600 C 334.980 12.464,334.800 11.913,334.800 11.376 C 334.800 10.839,334.664 10.400,334.498 10.400 C 334.331 10.400,333.942 9.828,333.632 9.128 C 332.946 7.577,327.449 2.000,326.606 2.000 C 326.273 2.000,325.999 1.865,325.997 1.700 C 325.981 0.159,329.501 0.202,200.800 0.158 C 133.150 0.135,77.305 0.192,76.700 0.285 M319.305 12.100 C 320.751 12.908,322.429 14.518,323.036 15.680 C 323.516 16.600,323.600 29.905,323.600 105.581 L 323.600 194.402 251.700 194.301 L 179.800 194.200 179.689 188.431 C 179.565 182.016,179.699 181.610,181.678 182.438 C 183.429 183.170,190.518 183.177,192.400 182.448 C 199.775 179.592,202.167 176.958,205.644 167.865 C 206.752 164.969,207.806 162.240,207.988 161.800 C 208.170 161.360,208.536 160.370,208.800 159.600 C 209.064 158.830,209.425 157.840,209.602 157.400 C 209.901 156.657,210.384 155.375,213.600 146.800 C 215.917 140.621,217.148 137.359,218.882 132.800 L 220.632 128.200 260.216 128.000 C 281.987 127.890,300.160 127.646,300.600 127.457 C 301.040 127.269,301.961 126.867,302.646 126.564 C 303.332 126.261,304.640 125.266,305.553 124.353 C 307.121 122.785,307.691 121.834,308.758 119.000 C 309.280 117.617,309.160 36.687,308.633 34.558 C 307.845 31.369,303.747 27.592,299.990 26.592 C 296.185 25.580,193.359 25.724,190.260 26.747 C 186.197 28.087,183.484 30.615,182.178 34.279 C 181.183 37.067,181.363 117.345,182.370 120.211 L 183.140 122.401 180.810 128.575 C 178.230 135.409,178.140 135.600,177.513 135.600 C 177.098 135.600,163.629 126.963,163.200 126.423 C 163.090 126.284,162.100 125.597,161.000 124.896 C 159.900 124.195,158.820 123.471,158.600 123.288 C 158.380 123.105,157.615 122.697,156.900 122.380 C 155.153 121.607,155.260 120.896,157.439 118.783 C 161.195 115.142,164.292 109.726,165.891 104.000 C 167.080 99.747,166.580 88.255,165.136 86.620 C 164.951 86.411,164.800 86.004,164.800 85.716 C 164.800 82.518,158.206 74.052,152.943 70.491 C 135.546 58.721,110.881 67.410,105.226 87.300 C 104.992 88.125,104.620 89.398,104.400 90.128 C 103.799 92.124,103.906 100.809,104.563 103.280 C 106.344 109.989,109.408 115.340,113.712 119.261 C 115.601 120.982,115.515 121.506,113.143 122.727 C 104.937 126.947,96.640 136.971,93.382 146.600 C 91.251 152.898,91.128 154.284,90.854 175.000 L 90.600 194.200 83.600 194.200 L 76.600 194.200 76.496 105.600 C 76.423 42.749,76.518 16.694,76.825 15.947 C 77.307 14.774,79.060 12.969,80.474 12.189 C 81.824 11.445,317.976 11.357,319.305 12.100 M297.553 37.743 C 297.882 38.140,297.976 48.843,297.902 77.443 L 297.800 116.600 261.400 116.600 L 225.000 116.600 224.784 112.600 C 224.546 108.197,223.774 105.579,221.918 102.882 L 220.736 101.163 221.979 96.082 C 222.662 93.287,223.380 90.460,223.573 89.800 C 223.767 89.140,224.143 87.610,224.408 86.400 C 224.673 85.190,225.050 83.787,225.245 83.281 C 225.440 82.776,225.600 81.931,225.600 81.405 C 225.600 80.878,225.760 80.348,225.956 80.227 C 226.292 80.020,226.528 79.007,227.058 75.497 C 227.182 74.671,227.445 73.895,227.642 73.774 C 227.839 73.652,228.000 73.021,228.000 72.371 C 228.000 71.721,228.163 70.877,228.363 70.495 C 228.562 70.113,229.026 68.540,229.394 67.000 C 229.761 65.460,230.250 63.480,230.480 62.600 C 231.589 58.353,231.377 55.457,229.844 53.924 C 226.768 50.848,221.460 52.225,220.567 56.331 C 220.440 56.919,220.187 57.850,220.006 58.400 C 219.825 58.950,219.482 60.210,219.245 61.200 C 219.007 62.190,217.532 68.130,215.967 74.400 C 214.401 80.670,212.961 86.520,212.766 87.400 C 212.571 88.280,212.217 89.720,211.980 90.600 C 211.742 91.480,211.417 92.740,211.258 93.400 L 210.967 94.600 206.749 94.625 C 204.335 94.639,201.946 94.870,201.165 95.166 C 198.494 96.177,196.371 97.348,194.849 98.651 C 194.000 99.378,193.192 99.858,193.053 99.719 C 192.523 99.190,192.767 37.680,193.300 37.465 C 194.624 36.931,297.106 37.204,297.553 37.743 M64.800 44.600 C 64.800 48.450,64.755 51.631,64.700 51.668 C 64.645 51.705,59.020 51.846,52.200 51.980 C 40.187 52.217,39.738 52.255,37.800 53.185 C 32.297 55.826,28.972 59.277,27.058 64.333 L 26.200 66.600 26.000 169.200 L 25.800 271.800 18.800 271.800 L 11.800 271.800 11.683 164.200 C 11.595 82.574,11.681 56.021,12.040 54.200 C 13.574 46.422,19.242 40.268,26.777 38.200 C 28.098 37.837,33.585 37.686,46.700 37.650 L 64.800 37.600 64.800 44.600 M372.782 38.190 C 380.780 40.319,386.690 46.697,387.987 54.600 C 388.327 56.672,388.414 85.266,388.323 164.600 L 388.200 271.800 381.200 271.800 L 374.200 271.800 374.000 169.000 L 373.800 66.200 372.962 64.162 C 371.048 59.508,367.769 55.979,363.270 53.733 L 360.200 52.200 347.800 51.968 C 340.980 51.840,335.355 51.705,335.300 51.668 C 335.245 51.631,335.200 48.450,335.200 44.600 L 335.200 37.600 352.900 37.605 C 367.091 37.609,371.033 37.725,372.782 38.190 M64.948 64.100 C 65.263 65.277,65.263 269.923,64.948 271.100 L 64.707 272.000 51.161 272.000 L 37.615 272.000 37.397 271.100 C 36.752 268.446,37.405 68.591,38.062 67.400 C 40.175 63.570,41.232 63.292,53.853 63.242 L 64.707 63.200 64.948 64.100 M358.366 63.982 C 360.320 64.980,361.866 66.816,362.390 68.764 C 362.668 69.796,362.769 102.975,362.701 171.046 L 362.600 271.800 348.900 271.905 L 335.200 272.011 335.200 167.605 L 335.200 63.200 346.016 63.200 C 355.962 63.200,356.955 63.263,358.366 63.982 M139.280 76.848 C 151.025 79.333,158.068 91.516,154.283 102.800 C 149.446 117.221,131.276 121.158,120.704 110.075 C 107.394 96.121,120.401 72.854,139.280 76.848 M206.975 105.846 C 207.492 106.044,207.566 106.463,207.359 108.024 C 206.900 111.485,208.354 114.034,211.229 114.808 C 212.123 115.049,212.800 115.476,212.800 115.800 C 212.800 117.145,207.645 130.206,207.068 130.324 C 206.221 130.496,194.000 126.432,194.000 125.978 C 194.000 125.775,194.468 124.392,195.039 122.904 C 195.610 121.417,196.616 118.760,197.273 117.000 C 200.528 108.285,201.252 107.197,204.451 106.199 C 205.413 105.899,206.230 105.641,206.267 105.627 C 206.304 105.612,206.623 105.711,206.975 105.846 M141.094 128.444 C 148.890 130.260,148.901 130.283,143.975 134.217 C 139.556 137.747,137.136 139.172,135.533 139.189 C 134.478 139.200,130.810 137.819,130.408 137.260 C 130.294 137.101,128.535 135.650,126.500 134.037 C 121.698 130.230,121.543 130.552,129.200 128.463 C 131.172 127.926,138.817 127.913,141.094 128.444 M164.743 141.144 C 172.897 146.636,173.515 146.918,177.400 146.926 C 182.603 146.936,186.525 144.444,188.667 139.767 C 189.953 136.956,189.310 136.983,196.566 139.441 C 203.816 141.898,203.473 141.711,202.906 142.901 C 202.671 143.395,202.083 144.880,201.600 146.200 C 201.117 147.520,200.570 148.960,200.385 149.400 C 200.199 149.840,198.576 154.160,196.778 159.000 C 192.486 170.555,191.379 171.913,186.580 171.515 C 181.360 171.082,179.614 168.966,179.605 163.062 C 179.596 156.577,175.589 153.502,171.037 156.486 C 168.522 158.135,168.618 157.402,168.400 176.600 L 168.200 194.200 135.300 194.302 L 102.400 194.405 102.406 175.502 C 102.412 158.024,102.472 156.359,103.204 153.400 C 105.002 146.132,111.949 135.652,113.405 138.009 C 113.544 138.234,114.608 139.119,115.768 139.976 C 116.928 140.834,118.130 141.775,118.439 142.068 C 118.748 142.360,119.659 143.092,120.465 143.694 C 121.271 144.296,122.171 145.024,122.465 145.313 C 128.657 151.394,140.343 151.860,147.000 146.291 C 151.298 142.696,158.256 137.224,158.543 137.213 C 158.731 137.206,161.521 138.975,164.743 141.144 M323.600 238.801 L 323.600 272.002 232.300 271.901 L 141.000 271.800 140.890 239.600 C 140.829 221.890,140.878 206.995,140.998 206.500 L 141.215 205.600 232.408 205.600 L 323.600 205.600 323.600 238.801 M128.967 206.243 C 129.614 206.491,129.992 269.312,129.357 270.967 C 128.986 271.934,77.014 271.934,76.643 270.967 C 76.326 270.140,76.326 207.460,76.643 206.633 C 76.891 205.986,127.318 205.610,128.967 206.243 M181.412 221.264 C 180.099 221.708,178.541 222.415,177.950 222.835 C 177.360 223.256,176.724 223.601,176.538 223.602 C 175.719 223.607,171.687 228.423,170.628 230.662 L 169.464 233.123 164.361 233.262 C 157.894 233.437,155.710 234.823,155.631 238.800 C 155.555 242.639,157.889 244.141,164.334 244.400 L 169.308 244.600 170.596 247.073 C 177.621 260.562,196.908 260.533,203.559 247.023 L 204.850 244.400 254.966 244.400 L 305.082 244.400 306.411 243.500 C 309.874 241.155,310.019 236.694,306.709 234.333 L 305.400 233.400 255.075 233.294 L 204.750 233.188 203.986 231.494 C 200.071 222.812,190.144 218.314,181.412 221.264 M189.226 231.865 C 191.191 232.258,193.841 235.077,194.191 237.145 C 195.669 245.895,184.203 249.801,180.454 241.825 C 177.748 236.068,182.614 230.543,189.226 231.865 M97.800 233.282 C 93.826 234.671,92.546 239.616,95.349 242.752 C 98.374 246.135,108.929 245.558,111.238 241.884 C 114.918 236.025,106.101 230.382,97.800 233.282 M239.520 322.480 C 240.212 323.172,240.212 361.628,239.520 362.320 C 239.172 362.668,236.258 362.800,228.920 362.800 L 218.800 362.800 218.800 356.020 C 218.800 345.199,217.622 341.875,212.600 338.529 C 209.217 336.276,192.603 336.001,188.339 338.128 C 182.893 340.845,181.830 343.255,181.692 353.200 C 181.633 357.490,181.495 361.405,181.385 361.900 L 181.185 362.800 170.982 362.800 L 160.780 362.800 160.390 361.774 C 159.845 360.341,159.868 323.794,160.414 322.774 C 160.927 321.816,238.567 321.527,239.520 322.480 M207.000 355.400 L 207.000 362.600 200.000 362.600 L 193.000 362.600 192.890 355.815 C 192.829 352.083,192.870 348.793,192.981 348.505 C 193.138 348.095,194.684 348.005,200.091 348.091 L 207.000 348.200 207.000 355.400 " stroke="none" fill="#040404" fill-rule="evenodd"></path><path id="path3" d="M80.474 12.189 C 79.060 12.969,77.307 14.774,76.825 15.947 C 76.518 16.694,76.423 42.749,76.496 105.600 L 76.600 194.200 83.600 194.200 L 90.600 194.200 90.854 175.000 C 91.128 154.284,91.251 152.898,93.382 146.600 C 96.640 136.971,104.937 126.947,113.143 122.727 C 115.515 121.506,115.601 120.982,113.712 119.261 C 111.370 117.127,109.083 114.134,107.706 111.400 C 104.709 105.445,104.013 102.607,103.953 96.080 C 103.913 91.734,103.853 91.289,103.541 93.000 C 102.082 100.988,106.125 112.543,112.561 118.783 C 114.820 120.973,114.829 121.215,112.700 122.397 C 111.765 122.916,110.910 123.462,110.800 123.610 C 110.690 123.759,110.181 124.101,109.668 124.371 C 104.121 127.294,95.425 138.515,93.217 145.600 C 92.908 146.590,92.539 147.580,92.395 147.800 C 92.252 148.020,91.909 149.280,91.634 150.600 C 91.359 151.920,90.969 153.755,90.767 154.677 C 90.565 155.600,90.400 164.735,90.400 174.977 L 90.400 193.600 83.600 193.600 L 76.800 193.600 76.800 105.354 L 76.800 17.109 77.621 15.648 C 78.073 14.844,79.095 13.739,79.892 13.193 L 81.341 12.200 199.217 12.098 C 304.457 12.007,317.250 12.062,318.563 12.610 C 320.329 13.348,322.400 15.242,322.400 16.120 C 322.400 16.468,322.580 16.864,322.800 17.000 C 323.065 17.164,323.200 47.055,323.200 105.377 L 323.200 193.508 310.300 193.778 C 303.205 193.927,271.120 193.992,239.000 193.924 L 180.600 193.800 180.488 188.253 L 180.377 182.707 181.888 183.053 C 192.085 185.392,201.417 180.378,205.251 170.500 C 205.443 170.005,205.762 169.195,205.960 168.700 C 206.157 168.205,206.536 167.170,206.800 166.400 C 207.064 165.630,207.425 164.640,207.601 164.200 C 207.778 163.760,208.317 162.320,208.800 161.000 C 209.283 159.680,209.823 158.240,210.001 157.800 C 210.709 156.045,217.525 137.837,219.659 132.000 C 220.101 130.790,220.604 129.530,220.775 129.200 C 221.048 128.675,226.024 128.575,260.644 128.400 C 282.400 128.290,300.560 128.049,301.000 127.864 C 303.336 126.882,303.966 126.456,305.811 124.611 C 307.716 122.706,308.076 122.153,309.150 119.481 C 309.473 118.678,309.600 106.696,309.600 76.993 L 309.600 35.623 308.631 33.432 C 308.098 32.227,306.863 30.442,305.887 29.466 C 304.255 27.834,303.470 27.357,300.281 26.056 C 297.919 25.093,192.053 25.442,189.434 26.422 C 186.506 27.517,183.441 30.325,182.191 33.057 L 181.200 35.224 181.200 76.979 C 181.200 116.750,181.235 118.816,181.942 120.467 C 182.500 121.771,182.587 122.447,182.294 123.200 C 182.079 123.750,181.763 124.560,181.591 125.000 C 181.419 125.440,180.883 126.880,180.400 128.200 C 179.917 129.520,179.371 130.960,179.187 131.400 C 179.003 131.840,178.625 132.875,178.346 133.700 C 177.676 135.684,178.610 136.126,166.587 128.135 L 155.958 121.070 157.716 119.235 C 160.547 116.281,160.915 115.808,162.723 112.789 C 167.190 105.332,168.449 95.020,165.858 87.117 C 156.388 58.225,117.246 56.752,105.587 84.849 C 104.443 87.605,103.582 91.532,104.370 90.400 C 104.600 90.070,104.791 89.403,104.794 88.919 C 104.797 88.434,105.002 87.534,105.250 86.919 C 105.497 86.303,105.857 85.395,106.050 84.900 C 114.176 64.016,141.656 58.409,157.623 74.377 C 160.836 77.589,164.800 83.852,164.800 85.716 C 164.800 86.004,164.951 86.411,165.136 86.620 C 166.580 88.255,167.080 99.747,165.891 104.000 C 164.292 109.726,161.195 115.142,157.439 118.783 C 155.260 120.896,155.153 121.607,156.900 122.380 C 157.615 122.697,158.380 123.105,158.600 123.288 C 158.820 123.471,159.900 124.195,161.000 124.896 C 162.100 125.597,163.090 126.284,163.200 126.423 C 163.629 126.963,177.098 135.600,177.513 135.600 C 178.140 135.600,178.230 135.409,180.810 128.575 L 183.140 122.401 182.370 120.211 C 181.363 117.345,181.183 37.067,182.178 34.279 C 183.484 30.615,186.197 28.087,190.260 26.747 C 193.359 25.724,296.185 25.580,299.990 26.592 C 303.747 27.592,307.845 31.369,308.633 34.558 C 309.160 36.687,309.280 117.617,308.758 119.000 C 307.691 121.834,307.121 122.785,305.553 124.353 C 304.640 125.266,303.332 126.261,302.646 126.564 C 301.961 126.867,301.040 127.269,300.600 127.457 C 300.160 127.646,281.987 127.890,260.216 128.000 L 220.632 128.200 218.882 132.800 C 217.148 137.359,215.917 140.621,213.600 146.800 C 210.384 155.375,209.901 156.657,209.602 157.400 C 209.425 157.840,209.064 158.830,208.800 159.600 C 208.536 160.370,208.170 161.360,207.988 161.800 C 207.806 162.240,206.752 164.969,205.644 167.865 C 202.167 176.958,199.775 179.592,192.400 182.448 C 190.518 183.177,183.429 183.170,181.678 182.438 C 179.699 181.610,179.565 182.016,179.689 188.431 L 179.800 194.200 251.700 194.301 L 323.600 194.402 323.600 105.581 C 323.600 29.905,323.516 16.600,323.036 15.680 C 322.429 14.518,320.751 12.908,319.305 12.100 C 317.976 11.357,81.824 11.445,80.474 12.189 M245.400 37.598 L 297.400 37.800 297.502 77.100 L 297.604 116.400 261.418 116.400 L 225.231 116.400 225.091 112.999 L 224.950 109.598 224.975 113.099 L 225.000 116.600 261.400 116.600 L 297.800 116.600 297.902 77.443 C 297.976 48.843,297.882 38.140,297.553 37.743 C 297.177 37.290,288.539 37.216,245.251 37.298 L 193.400 37.396 245.400 37.598 M26.777 38.200 C 19.242 40.268,13.574 46.422,12.040 54.200 C 11.681 56.021,11.595 82.574,11.683 164.200 L 11.800 271.800 18.800 271.800 L 25.800 271.800 26.000 169.200 L 26.200 66.600 27.058 64.333 C 28.972 59.277,32.297 55.826,37.800 53.185 C 39.738 52.255,40.187 52.217,52.200 51.980 C 59.020 51.846,64.645 51.705,64.700 51.668 C 64.755 51.631,64.800 48.450,64.800 44.600 L 64.800 37.600 46.700 37.650 C 33.585 37.686,28.098 37.837,26.777 38.200 M192.897 68.433 C 192.844 85.502,192.914 99.580,193.053 99.719 C 193.192 99.858,194.021 99.360,194.895 98.612 C 195.769 97.863,197.095 96.961,197.842 96.607 C 198.589 96.252,199.200 95.887,199.200 95.794 C 199.200 95.437,197.709 96.199,195.502 97.682 L 193.205 99.226 193.100 68.313 L 192.995 37.400 192.897 68.433 M335.200 44.600 C 335.200 48.450,335.245 51.631,335.300 51.668 C 335.355 51.705,340.980 51.840,347.800 51.968 L 360.200 52.200 363.270 53.733 C 367.769 55.979,371.048 59.508,372.962 64.162 L 373.800 66.200 374.000 169.000 L 374.200 271.800 381.200 271.800 L 388.200 271.800 388.323 164.600 C 388.414 85.266,388.327 56.672,387.987 54.600 C 386.989 48.518,382.715 42.587,377.468 40.004 C 372.694 37.653,372.251 37.610,352.900 37.605 L 335.200 37.600 335.200 44.600 M223.780 52.163 C 222.494 52.723,220.399 54.935,220.401 55.731 C 220.402 55.989,220.754 55.625,221.182 54.922 C 222.351 53.005,223.775 52.245,226.145 52.273 C 227.554 52.289,227.949 52.196,227.400 51.976 C 226.229 51.508,225.157 51.563,223.780 52.163 M228.810 52.913 C 229.146 53.181,229.848 53.850,230.369 54.400 C 230.891 54.950,231.174 55.130,230.999 54.800 C 230.462 53.787,229.085 52.399,228.630 52.413 C 228.394 52.420,228.475 52.645,228.810 52.913 M231.261 57.600 C 231.253 59.366,231.325 59.615,231.627 58.861 C 231.857 58.287,231.861 57.433,231.637 56.661 C 231.307 55.521,231.271 55.610,231.261 57.600 M219.829 57.429 C 219.681 58.015,219.651 58.584,219.761 58.694 C 219.871 58.804,220.081 58.415,220.229 57.829 C 220.376 57.242,220.406 56.673,220.296 56.563 C 220.186 56.453,219.976 56.842,219.829 57.429 M219.029 60.629 C 218.881 61.215,218.838 61.772,218.932 61.866 C 219.027 61.960,219.224 61.558,219.371 60.971 C 219.519 60.385,219.562 59.828,219.468 59.734 C 219.373 59.640,219.176 60.042,219.029 60.629 M230.673 61.353 C 230.523 61.745,230.411 62.366,230.425 62.733 C 230.442 63.175,230.581 63.074,230.837 62.434 C 231.049 61.903,231.161 61.282,231.085 61.054 C 231.009 60.827,230.824 60.961,230.673 61.353 M218.200 64.000 C 218.048 64.691,218.014 65.347,218.124 65.457 C 218.234 65.567,218.448 65.091,218.600 64.400 C 218.752 63.709,218.786 63.053,218.676 62.943 C 218.566 62.833,218.352 63.309,218.200 64.000 M42.661 63.500 C 42.559 63.665,47.346 63.744,53.299 63.676 C 61.895 63.577,64.191 63.659,64.455 64.076 C 64.638 64.364,64.835 111.040,64.893 167.800 L 64.998 271.000 65.112 168.400 C 65.175 111.970,65.122 65.215,64.995 64.500 L 64.764 63.200 53.805 63.200 C 47.778 63.200,42.764 63.335,42.661 63.500 M335.200 167.605 L 335.200 272.011 348.900 271.905 L 362.600 271.800 362.701 171.046 C 362.807 65.090,362.860 68.284,360.939 66.001 C 358.687 63.324,358.025 63.200,346.016 63.200 L 335.200 63.200 335.200 167.605 M357.069 64.059 C 359.308 64.623,361.258 66.480,361.915 68.675 C 362.289 69.923,362.400 93.275,362.400 170.946 L 362.400 271.600 349.000 271.600 L 335.600 271.600 335.600 167.600 L 335.600 63.600 345.423 63.600 C 351.487 63.600,355.943 63.776,357.069 64.059 M40.016 65.048 C 38.630 66.214,37.583 67.984,37.632 69.080 C 37.656 69.636,37.713 69.663,37.880 69.200 C 38.651 67.070,39.493 65.829,40.750 64.976 C 41.540 64.439,41.978 64.000,41.724 64.000 C 41.469 64.000,40.701 64.471,40.016 65.048 M229.849 64.615 C 229.712 64.973,229.615 65.566,229.634 65.933 C 229.653 66.300,229.827 66.069,230.021 65.420 C 230.398 64.158,230.265 63.533,229.849 64.615 M217.400 67.200 C 217.248 67.891,217.207 68.541,217.309 68.642 C 217.411 68.744,217.609 68.253,217.750 67.550 C 218.083 65.883,217.760 65.560,217.400 67.200 M229.000 68.000 C 228.848 68.691,228.807 69.341,228.909 69.442 C 229.011 69.544,229.209 69.053,229.350 68.350 C 229.683 66.683,229.360 66.360,229.000 68.000 M216.222 72.022 C 215.842 73.586,215.607 74.941,215.700 75.033 C 215.793 75.126,216.178 73.921,216.556 72.356 C 216.933 70.790,217.168 69.435,217.078 69.344 C 216.987 69.254,216.602 70.459,216.222 72.022 M37.397 170.600 C 37.397 226.040,37.443 248.661,37.500 220.868 C 37.557 193.075,37.557 147.715,37.500 120.068 C 37.443 92.421,37.397 115.160,37.397 170.600 M228.267 70.667 C 228.120 70.813,228.015 71.398,228.034 71.967 C 228.068 72.981,228.075 72.979,228.421 71.820 C 228.785 70.603,228.731 70.202,228.267 70.667 M227.467 73.867 C 227.320 74.013,227.215 74.598,227.234 75.167 C 227.268 76.181,227.275 76.179,227.621 75.020 C 227.985 73.803,227.931 73.402,227.467 73.867 M215.049 76.215 C 214.912 76.573,214.816 77.256,214.836 77.733 C 214.862 78.347,214.985 78.208,215.259 77.256 C 215.657 75.872,215.494 75.058,215.049 76.215 M133.511 76.693 C 134.451 76.778,135.891 76.777,136.711 76.691 C 137.530 76.605,136.760 76.536,135.000 76.537 C 133.240 76.539,132.570 76.609,133.511 76.693 M226.649 77.415 C 226.512 77.773,226.418 78.456,226.441 78.933 C 226.467 79.481,226.603 79.286,226.810 78.403 C 227.160 76.916,227.065 76.333,226.649 77.415 M213.833 81.690 C 213.459 83.290,213.006 85.050,212.826 85.600 C 212.646 86.150,212.282 87.590,212.015 88.800 C 211.749 90.010,211.448 91.360,211.347 91.800 C 211.206 92.410,211.246 92.457,211.516 92.000 C 211.711 91.670,212.099 90.320,212.378 89.000 C 212.657 87.680,213.034 86.150,213.216 85.600 C 213.847 83.687,214.855 79.122,214.685 78.952 C 214.590 78.857,214.207 80.089,213.833 81.690 M225.867 80.267 C 225.720 80.413,225.615 80.998,225.634 81.567 C 225.668 82.581,225.675 82.579,226.021 81.420 C 226.385 80.203,226.331 79.802,225.867 80.267 M121.200 82.200 C 120.228 83.190,119.523 84.000,119.633 84.000 C 119.743 84.000,120.628 83.190,121.600 82.200 C 122.572 81.210,123.277 80.400,123.167 80.400 C 123.057 80.400,122.172 81.210,121.200 82.200 M225.049 83.415 C 224.912 83.773,224.816 84.456,224.836 84.933 C 224.862 85.547,224.985 85.408,225.259 84.456 C 225.657 83.072,225.494 82.258,225.049 83.415 M224.205 87.271 C 224.056 88.002,223.774 89.140,223.578 89.800 C 223.382 90.460,222.662 93.287,221.979 96.082 L 220.736 101.163 221.935 102.906 C 222.595 103.864,223.442 105.590,223.818 106.740 C 224.194 107.890,224.575 108.758,224.664 108.669 C 224.993 108.341,223.475 104.548,222.338 102.855 L 221.166 101.110 223.015 93.720 C 224.031 89.655,224.776 86.243,224.670 86.136 C 224.563 86.030,224.354 86.541,224.205 87.271 M210.832 93.400 C 210.802 94.146,210.508 94.203,206.500 94.244 C 203.345 94.276,201.827 94.468,200.800 94.965 C 199.898 95.403,199.756 95.552,200.400 95.386 C 203.058 94.701,206.032 94.423,208.295 94.646 C 210.864 94.899,211.619 94.482,211.069 93.113 C 210.954 92.825,210.849 92.951,210.832 93.400 M115.328 96.400 C 115.328 97.830,115.401 98.415,115.489 97.700 C 115.578 96.985,115.578 95.815,115.489 95.100 C 115.401 94.385,115.328 94.970,115.328 96.400 M155.293 96.400 C 155.293 97.170,155.375 97.485,155.476 97.100 C 155.576 96.715,155.576 96.085,155.476 95.700 C 155.375 95.315,155.293 95.630,155.293 96.400 M205.200 105.991 C 204.391 106.243,204.522 106.296,205.887 106.267 C 206.847 106.246,207.364 106.098,207.087 105.922 C 206.534 105.571,206.553 105.570,205.200 105.991 M202.022 107.443 C 201.340 108.017,200.594 108.872,200.364 109.343 C 200.024 110.041,200.095 110.015,200.749 109.201 C 201.191 108.652,202.058 107.798,202.676 107.303 C 203.294 106.809,203.679 106.403,203.531 106.402 C 203.383 106.401,202.704 106.869,202.022 107.443 M206.901 109.400 C 206.905 110.280,206.987 110.593,207.083 110.095 C 207.179 109.598,207.175 108.878,207.075 108.495 C 206.975 108.113,206.896 108.520,206.901 109.400 M149.106 110.611 C 148.284 111.375,147.754 112.000,147.927 112.000 C 148.101 112.000,148.854 111.370,149.600 110.600 C 151.341 108.803,151.043 108.810,149.106 110.611 M211.370 115.158 C 211.794 115.324,212.276 115.806,212.442 116.230 C 212.725 116.951,212.746 116.946,212.772 116.143 C 212.799 115.325,212.075 114.767,211.067 114.828 C 210.810 114.844,210.947 114.992,211.370 115.158 M138.600 116.000 C 138.096 116.217,138.022 116.344,138.400 116.344 C 138.730 116.344,139.360 116.189,139.800 116.000 C 140.304 115.783,140.378 115.656,140.000 115.656 C 139.670 115.656,139.040 115.811,138.600 116.000 M129.914 128.328 C 129.537 128.478,131.915 128.600,135.198 128.600 C 138.481 128.600,140.859 128.478,140.484 128.328 C 140.108 128.179,137.730 128.056,135.200 128.056 C 132.670 128.056,130.291 128.179,129.914 128.328 M207.667 129.180 C 207.433 129.851,207.327 130.400,207.431 130.400 C 207.701 130.400,208.456 128.322,208.257 128.124 C 208.167 128.033,207.901 128.508,207.667 129.180 M126.400 129.200 C 125.605 129.714,126.604 129.714,127.800 129.200 L 128.600 128.856 127.800 128.834 C 127.360 128.822,126.730 128.987,126.400 129.200 M142.800 129.200 C 144.342 129.694,145.164 129.694,144.400 129.200 C 144.070 128.987,143.350 128.827,142.800 128.846 L 141.800 128.880 142.800 129.200 M123.700 130.088 C 122.460 130.686,122.549 130.944,124.500 132.412 L 126.200 133.691 124.713 132.252 L 123.225 130.812 124.313 130.222 C 125.560 129.545,125.055 129.435,123.700 130.088 M146.349 130.217 L 147.699 130.803 143.649 134.038 C 141.422 135.818,139.600 137.355,139.600 137.455 C 139.600 137.648,141.436 136.265,145.512 133.000 C 148.067 130.953,148.127 129.557,145.656 129.616 C 145.295 129.624,145.607 129.895,146.349 130.217 M126.529 133.871 C 126.684 134.130,127.574 134.921,128.506 135.629 C 130.087 136.830,130.120 136.839,128.997 135.758 C 127.401 134.221,126.178 133.286,126.529 133.871 M130.400 137.154 C 130.400 137.483,132.409 138.524,132.626 138.307 C 132.693 138.240,132.220 137.882,131.574 137.511 C 130.928 137.140,130.400 136.980,130.400 137.154 M133.717 138.881 C 134.363 139.291,136.468 139.272,137.135 138.849 C 137.462 138.641,136.807 138.522,135.452 138.542 C 134.232 138.559,133.451 138.712,133.717 138.881 M179.746 163.800 C 179.747 166.000,179.814 166.849,179.895 165.687 C 179.976 164.524,179.976 162.724,179.893 161.687 C 179.811 160.649,179.745 161.600,179.746 163.800 M135.200 194.000 L 102.200 194.207 135.076 194.303 C 156.667 194.367,168.038 194.263,168.200 194.000 C 168.336 193.780,168.392 193.643,168.324 193.697 C 168.256 193.750,153.350 193.886,135.200 194.000 M140.998 206.500 C 140.878 206.995,140.829 221.890,140.890 239.600 L 141.000 271.800 232.300 271.901 L 323.600 272.002 323.600 238.801 L 323.600 205.600 232.408 205.600 L 141.215 205.600 140.998 206.500 M76.643 206.633 C 76.326 207.460,76.326 270.140,76.643 270.967 C 77.014 271.934,128.986 271.934,129.357 270.967 C 129.992 269.312,129.614 206.491,128.967 206.243 C 127.318 205.610,76.891 205.986,76.643 206.633 M323.200 238.800 L 323.200 271.600 232.443 271.600 C 150.053 271.600,141.663 271.542,141.443 270.967 C 141.110 270.100,141.134 206.600,141.467 206.267 C 141.613 206.120,182.563 206.000,232.467 206.000 L 323.200 206.000 323.200 238.800 M185.491 220.289 C 186.201 220.377,187.461 220.379,188.291 220.292 C 189.121 220.205,188.540 220.133,187.000 220.131 C 185.460 220.129,184.781 220.200,185.491 220.289 M180.657 221.022 C 178.790 221.707,176.282 223.215,176.556 223.489 C 176.665 223.598,177.265 223.324,177.889 222.879 C 178.513 222.434,180.099 221.708,181.412 221.264 C 182.725 220.820,183.440 220.457,183.000 220.457 C 182.560 220.457,181.506 220.711,180.657 221.022 M191.000 220.800 C 191.440 220.989,192.160 221.144,192.600 221.144 L 193.400 221.144 192.600 220.800 C 192.160 220.611,191.440 220.456,191.000 220.456 L 190.200 220.456 191.000 220.800 M193.600 221.371 C 193.600 221.647,196.114 222.820,196.302 222.631 C 196.397 222.536,195.927 222.176,195.257 221.829 C 194.009 221.184,193.600 221.071,193.600 221.371 M197.400 223.390 C 200.398 225.768,202.736 228.637,203.995 231.482 L 204.750 233.188 255.075 233.294 L 305.400 233.400 306.728 234.347 C 308.085 235.315,308.656 236.326,309.242 238.800 C 309.553 240.115,309.564 240.093,309.416 238.435 C 309.247 236.538,308.406 235.139,306.646 233.825 C 305.546 233.003,305.339 233.000,255.266 232.895 L 204.991 232.791 204.430 231.495 C 203.104 228.432,199.540 224.200,197.400 223.149 L 196.600 222.756 197.400 223.390 M173.700 225.710 C 172.571 226.859,171.084 228.880,170.394 230.200 L 169.141 232.600 164.198 232.800 C 160.025 232.969,159.084 233.128,158.153 233.825 C 156.805 234.832,155.367 236.700,155.690 237.024 C 155.821 237.154,156.169 236.768,156.464 236.166 C 157.602 233.844,158.772 233.413,164.361 233.262 L 169.464 233.123 170.625 230.662 C 171.264 229.308,172.734 227.224,173.891 226.031 C 175.049 224.839,175.941 223.808,175.875 223.741 C 175.808 223.674,174.829 224.560,173.700 225.710 M186.105 231.887 C 186.714 231.979,187.614 231.977,188.105 231.882 C 188.597 231.787,188.100 231.711,187.000 231.714 C 185.900 231.717,185.497 231.795,186.105 231.887 M182.935 232.824 C 181.651 233.646,180.176 235.509,180.529 235.862 C 180.635 235.969,181.037 235.523,181.421 234.872 C 181.806 234.221,182.768 233.313,183.560 232.853 C 184.352 232.394,184.820 232.017,184.600 232.016 C 184.380 232.015,183.631 232.378,182.935 232.824 M108.574 233.606 C 113.041 235.819,113.189 241.761,108.832 243.984 C 106.858 244.991,99.622 245.161,97.487 244.252 C 92.501 242.127,92.702 235.064,97.800 233.282 C 100.047 232.497,106.742 232.698,108.574 233.606 M192.471 234.341 C 193.675 235.919,193.800 236.338,193.800 238.800 C 193.800 241.262,193.675 241.681,192.471 243.259 L 191.142 245.000 192.541 243.468 C 194.090 241.771,194.630 239.748,194.205 237.232 C 194.041 236.256,193.413 235.086,192.541 234.132 L 191.142 232.600 192.471 234.341 M179.843 237.033 C 179.507 237.908,179.549 240.101,179.913 240.673 C 180.078 240.933,180.213 240.078,180.213 238.773 C 180.213 236.177,180.198 236.106,179.843 237.033 M155.293 238.800 C 155.293 239.570,155.375 239.885,155.476 239.500 C 155.576 239.115,155.576 238.485,155.476 238.100 C 155.375 237.715,155.293 238.030,155.293 238.800 M155.601 240.538 C 155.590 243.218,158.890 244.800,164.494 244.800 L 169.079 244.800 169.819 246.441 C 170.898 248.834,172.898 251.507,174.659 252.911 L 176.200 254.138 174.400 252.180 C 173.410 251.103,172.462 250.114,172.294 249.983 C 172.126 249.852,171.385 248.588,170.648 247.173 L 169.308 244.600 164.334 244.400 C 158.837 244.179,157.796 243.796,156.382 241.478 C 155.954 240.775,155.602 240.352,155.601 240.538 M308.336 241.455 C 308.041 242.068,307.188 242.982,306.441 243.485 L 305.082 244.400 254.955 244.400 L 204.828 244.400 204.382 245.234 C 204.136 245.693,204.047 246.180,204.183 246.317 C 204.320 246.453,204.536 246.168,204.663 245.683 L 204.893 244.800 254.892 244.800 L 304.891 244.800 306.382 243.962 C 307.790 243.170,309.515 240.981,309.075 240.542 C 308.964 240.431,308.631 240.841,308.336 241.455 M180.407 241.900 C 180.385 243.489,185.056 246.457,187.446 246.374 C 187.861 246.359,187.254 246.093,186.097 245.781 C 183.495 245.080,182.269 244.297,181.224 242.665 C 180.778 241.969,180.410 241.625,180.407 241.900 M202.842 248.411 C 198.516 256.108,187.214 259.497,179.200 255.500 C 177.550 254.677,176.560 254.293,177.000 254.646 C 184.396 260.592,199.026 257.140,203.329 248.435 C 204.282 246.507,203.922 246.489,202.842 248.411 M51.000 271.600 L 37.400 271.816 51.100 271.908 C 60.028 271.968,64.800 271.861,64.800 271.600 C 64.800 271.380,64.755 271.241,64.700 271.292 C 64.645 271.343,58.480 271.481,51.000 271.600 M11.862 283.500 C 11.760 283.665,96.422 283.800,200.000 283.800 C 303.578 283.800,388.240 283.665,388.138 283.500 C 387.896 283.108,12.104 283.108,11.862 283.500 M11.606 292.633 C 11.609 293.715,11.781 294.867,11.987 295.192 C 12.230 295.577,12.279 294.946,12.125 293.392 C 11.830 290.398,11.598 290.059,11.606 292.633 M388.064 292.400 C 388.023 293.170,387.889 294.250,387.767 294.800 C 387.576 295.658,387.609 295.700,387.995 295.095 C 388.243 294.707,388.377 293.627,388.293 292.695 C 388.151 291.127,388.134 291.105,388.064 292.400 M386.202 299.100 C 384.115 303.890,378.829 308.349,373.558 309.767 C 372.097 310.160,371.749 310.356,372.481 310.374 C 374.237 310.416,377.699 308.886,380.284 306.923 C 383.283 304.646,385.891 301.305,387.181 298.087 C 388.182 295.591,387.360 296.441,386.202 299.100 M13.209 298.833 C 13.214 299.145,13.585 299.850,14.033 300.400 L 14.848 301.400 14.173 300.000 C 13.348 298.288,13.197 298.106,13.209 298.833 M15.504 302.665 C 18.214 306.470,25.144 310.882,27.468 310.282 C 28.043 310.133,28.001 310.083,27.274 310.046 C 24.949 309.930,20.321 307.226,17.459 304.312 C 15.895 302.720,15.015 301.979,15.504 302.665 M29.817 310.853 C 30.467 310.992,37.840 311.094,46.200 311.081 C 54.560 311.067,60.590 311.002,59.600 310.937 C 55.845 310.688,28.688 310.612,29.817 310.853 M223.400 310.799 C 80.980 310.999,80.194 311.004,79.134 311.800 C 77.944 312.693,76.783 314.440,76.833 315.262 C 76.851 315.558,77.111 315.239,77.412 314.553 C 77.713 313.867,78.522 312.832,79.210 312.253 L 80.461 311.200 224.331 311.177 C 303.459 311.164,368.920 311.005,369.800 310.823 C 371.285 310.516,371.228 310.496,369.000 310.545 C 367.680 310.574,302.160 310.688,223.400 310.799 M62.678 312.450 C 63.381 313.192,64.134 314.250,64.353 314.800 C 64.571 315.350,64.760 315.530,64.773 315.200 C 64.810 314.270,63.345 312.104,62.321 311.575 C 61.568 311.187,61.634 311.346,62.678 312.450 M160.414 322.774 C 159.868 323.794,159.845 360.341,160.390 361.774 L 160.780 362.800 171.090 362.707 L 181.400 362.614 171.096 362.500 L 160.793 362.386 160.896 342.493 L 161.000 322.600 200.000 322.600 L 239.000 322.600 239.104 342.500 L 239.207 362.400 228.904 362.493 L 218.600 362.586 228.751 362.700 C 235.913 362.780,239.063 362.680,239.451 362.358 C 240.205 361.732,240.272 323.232,239.520 322.480 C 238.567 321.527,160.927 321.816,160.414 322.774 M195.900 336.698 C 198.155 336.770,201.845 336.770,204.100 336.698 C 206.355 336.627,204.510 336.569,200.000 336.569 C 195.490 336.569,193.645 336.627,195.900 336.698 M188.000 337.785 C 182.507 340.676,181.408 343.328,181.366 353.800 L 181.332 362.200 181.567 353.800 C 181.886 342.372,183.351 339.718,190.800 337.076 C 191.217 336.928,191.156 336.859,190.600 336.850 C 190.160 336.843,188.990 337.264,188.000 337.785 M209.400 337.200 C 210.596 337.714,211.595 337.714,210.800 337.200 C 210.470 336.987,209.840 336.822,209.400 336.834 L 208.600 336.856 209.400 337.200 M212.391 338.291 C 215.829 340.752,217.308 342.855,218.236 346.600 C 218.665 348.329,218.737 348.426,218.766 347.312 C 218.841 344.452,215.543 339.552,212.600 338.153 L 211.400 337.582 212.391 338.291 M192.981 348.505 C 192.870 348.793,192.829 352.083,192.890 355.815 L 193.000 362.600 200.000 362.600 L 207.000 362.600 207.000 355.400 L 207.000 348.200 200.091 348.091 C 194.684 348.005,193.138 348.095,192.981 348.505 M206.800 355.400 L 206.800 362.400 200.000 362.400 L 193.200 362.400 193.200 355.400 L 193.200 348.400 200.000 348.400 L 206.800 348.400 206.800 355.400 M114.977 374.514 C 114.497 375.767,115.000 388.134,115.539 388.313 C 115.968 388.456,115.986 388.321,115.628 387.653 C 115.337 387.109,115.218 384.667,115.290 380.707 L 115.400 374.600 199.776 374.499 C 267.013 374.419,284.216 374.500,284.470 374.899 C 284.961 375.673,284.867 386.727,284.361 387.673 C 284.015 388.320,284.036 388.455,284.461 388.313 C 284.885 388.172,285.000 386.652,285.000 381.167 L 285.000 374.200 200.088 374.099 C 131.027 374.017,115.139 374.095,114.977 374.514 M235.713 389.187 C 237.516 390.088,238.768 391.488,238.787 392.624 C 238.794 393.076,239.062 393.796,239.383 394.224 C 240.286 395.428,239.263 392.112,238.293 390.694 C 237.526 389.572,235.667 388.387,234.720 388.416 C 234.434 388.425,234.881 388.772,235.713 389.187 M252.636 390.431 C 252.066 391.108,251.605 391.873,251.612 392.131 C 251.619 392.389,251.823 392.240,252.067 391.800 C 252.310 391.360,252.876 390.595,253.324 390.100 C 253.773 389.605,254.034 389.200,253.905 389.200 C 253.776 389.200,253.205 389.754,252.636 390.431 " stroke="none" fill="#2c448b" fill-rule="evenodd"></path><path id="path4" d="M130.400 77.200 L 129.400 77.520 130.400 77.554 C 130.950 77.573,131.670 77.413,132.000 77.200 C 132.764 76.706,131.942 76.706,130.400 77.200 M138.200 77.200 C 138.336 77.420,138.932 77.587,139.524 77.572 C 140.485 77.547,140.514 77.507,139.800 77.200 C 138.689 76.722,137.905 76.722,138.200 77.200 M124.389 79.860 C 122.944 80.824,120.461 83.220,119.478 84.600 C 119.008 85.260,119.788 84.617,121.212 83.171 C 122.635 81.726,124.250 80.250,124.800 79.892 C 125.350 79.535,125.705 79.233,125.589 79.221 C 125.473 79.209,124.933 79.497,124.389 79.860 M145.600 79.898 C 146.150 80.259,147.691 81.645,149.024 82.977 C 151.186 85.138,151.986 86.413,153.935 90.800 C 154.363 91.765,154.370 91.758,154.138 90.600 C 153.793 88.878,151.790 85.234,150.288 83.596 C 148.520 81.668,145.547 79.196,145.028 79.221 C 144.793 79.233,145.050 79.537,145.600 79.898 M117.874 86.943 C 116.418 89.165,115.598 92.826,115.673 96.766 L 115.747 100.600 116.014 96.400 C 116.308 91.774,116.696 90.013,117.950 87.606 C 118.875 85.831,118.835 85.477,117.874 86.943 M154.503 96.400 C 154.503 100.710,154.528 100.855,154.897 98.700 C 155.155 97.190,155.155 95.610,154.897 94.100 C 154.528 91.945,154.503 92.090,154.503 96.400 M116.237 101.800 C 116.695 103.903,118.716 107.747,120.232 109.400 L 121.699 111.000 120.244 109.000 C 118.753 106.951,116.805 103.161,116.794 102.288 C 116.791 102.020,116.605 101.530,116.382 101.200 C 116.084 100.761,116.046 100.921,116.237 101.800 M153.867 101.867 C 153.720 102.013,153.611 102.508,153.625 102.967 C 153.649 103.733,153.682 103.723,154.034 102.842 C 154.426 101.863,154.344 101.389,153.867 101.867 M151.392 107.300 C 150.779 108.235,149.751 109.510,149.107 110.134 C 148.462 110.758,148.018 111.351,148.118 111.452 C 148.371 111.705,151.553 108.047,152.250 106.700 C 153.100 105.060,152.657 105.370,151.392 107.300 M206.300 106.265 C 206.575 106.376,206.813 106.857,206.828 107.333 C 206.855 108.169,206.868 108.171,207.174 107.400 C 207.487 106.609,207.040 105.984,206.200 106.038 C 205.980 106.052,206.025 106.154,206.300 106.265 M201.348 108.561 C 200.220 109.975,197.813 115.547,198.175 115.908 C 198.288 116.022,198.492 115.774,198.629 115.357 C 199.643 112.252,200.682 109.982,201.675 108.700 C 202.315 107.875,202.747 107.200,202.636 107.200 C 202.525 107.200,201.945 107.812,201.348 108.561 M122.016 111.115 C 122.035 111.478,125.611 114.123,125.811 113.922 C 125.893 113.840,125.069 113.111,123.980 112.301 C 122.891 111.492,122.007 110.958,122.016 111.115 M206.807 111.106 C 206.786 112.684,211.373 116.760,212.219 115.914 C 212.336 115.797,211.570 115.273,210.516 114.750 C 209.197 114.096,208.322 113.302,207.707 112.200 C 207.215 111.320,206.810 110.828,206.807 111.106 M146.599 112.278 C 142.689 115.276,135.602 116.683,130.819 115.410 C 128.328 114.747,127.532 114.905,129.862 115.600 C 134.487 116.978,139.527 116.410,144.600 113.938 C 146.478 113.023,147.812 112.079,147.570 111.837 C 147.476 111.743,147.039 111.941,146.599 112.278 M196.277 120.277 C 195.900 121.293,195.679 122.213,195.787 122.320 C 195.894 122.427,196.092 122.174,196.228 121.757 C 196.364 121.341,196.662 120.499,196.891 119.887 C 197.120 119.275,197.230 118.697,197.135 118.601 C 197.040 118.506,196.654 119.260,196.277 120.277 M203.202 128.935 C 203.841 129.574,207.024 130.334,207.394 129.936 C 207.677 129.632,207.618 129.559,207.200 129.696 C 206.870 129.804,206.330 129.761,206.000 129.601 C 205.207 129.217,202.946 128.679,203.202 128.935 M109.818 140.500 C 107.199 143.836,105.278 147.248,104.246 150.400 C 102.492 155.754,102.400 157.029,102.400 175.902 L 102.400 194.005 135.300 193.902 L 168.200 193.800 168.400 176.400 C 168.638 155.736,168.676 155.600,174.206 155.600 C 178.493 155.600,180.000 157.871,180.000 164.333 L 180.000 168.291 181.500 169.327 C 184.726 171.555,187.279 172.090,189.713 171.049 C 192.386 169.906,193.018 168.768,197.239 157.500 C 200.143 149.748,200.898 147.746,201.201 147.000 C 202.139 144.688,202.800 142.724,202.800 142.248 C 202.800 141.918,200.685 140.982,197.300 139.814 C 189.505 137.125,189.952 137.137,188.885 139.581 C 186.746 144.480,182.993 146.940,177.600 146.977 C 173.444 147.005,173.011 146.817,165.110 141.536 C 157.959 136.758,159.016 136.741,152.879 141.723 C 143.282 149.513,141.976 150.144,135.400 150.166 C 129.059 150.187,127.043 149.260,118.600 142.447 C 111.500 136.717,112.598 136.960,109.818 140.500 M11.742 287.400 C 11.741 289.380,11.808 290.240,11.892 289.312 C 11.976 288.384,11.977 286.764,11.895 285.712 C 11.812 284.660,11.743 285.420,11.742 287.400 M38.274 310.699 C 42.055 310.765,48.355 310.765,52.274 310.699 C 56.193 310.634,53.100 310.580,45.400 310.580 C 37.700 310.580,34.493 310.634,38.274 310.699 M153.300 310.700 C 192.405 310.756,256.395 310.756,295.500 310.700 C 334.605 310.644,302.610 310.598,224.400 310.598 C 146.190 310.598,114.195 310.644,153.300 310.700 M115.362 381.000 C 115.362 384.520,115.424 385.906,115.498 384.081 C 115.572 382.256,115.572 379.376,115.497 377.681 C 115.422 375.986,115.361 377.480,115.362 381.000 " stroke="none" fill="#34c16b" fill-rule="evenodd"></path></g></svg>