<?xml version="1.0" encoding="UTF-8" standalone="no"?> <svg xmlns="http://www.w3.org/2000/svg" data-name="Layer 1" viewBox="0 0 32 32"><polygon fill="#8b8891" points="29.5 26.51 27.05 26.51 24.86 22.83 24.11 21.58 24.87 17.86 25.59 19.21 29.5 26.51"/><rect width="3" height="3.6" x="2.5" y="19.51" fill="#fdc475"/><path fill="#faa827" d="M5.5,21.23v.54a1.98815,1.98815,0,0,1-.94.24h-1A1.91164,1.91164,0,0,1,2.5,21.7v-.47Z"/><circle cx="15" cy="8" r="7.5" fill="#37b678"/><path fill="#00a653" d="M8.5,8a7.49442,7.49442,0,0,1,7-7.47479C15.334.51422,15.16882.5,15,.5a7.5,7.5,0,0,0,0,15c.16882,0,.334-.01422.5-.02521A7.49442,7.49442,0,0,1,8.5,8Z"/><circle cx="15" cy="8" r="5.5" fill="#fff"/><path fill="#e0e0e2" d="M10.5,8a5.49864,5.49864,0,0,1,5-5.47479C15.33508,2.51031,15.16882,2.5,15,2.5a5.5,5.5,0,0,0,0,11c.16882,0,.33508-.01031.5-.02521A5.49868,5.49868,0,0,1,10.5,8Z"/><path fill="#3c3b41" d="M17.5 8.5H16a.5.5 0 0 1 0-1h1.5a.5.5 0 0 1 0 1zM14.874 7.51221a.49971.49971 0 0 1-.5-.5V4.87256a.5.5 0 1 1 1 0V7.01221A.49971.49971 0 0 1 14.874 7.51221z"/><circle cx="15" cy="8" r="1" fill="#37b678" transform="rotate(-37.84 15 8)"/><path fill="#e5303e" d="M13.5,27.01a1.498,1.498,0,0,1-1.5,1.5H8.5L6.3,26.86a.5.5,0,0,0-.8.4v4.25H.5v-7a2.00588,2.00588,0,0,1,2-2H4.8a1.9857,1.9857,0,0,1,1.25.44l3.2,2.56H12A1.498,1.498,0,0,1,13.5,27.01Z"/><path fill="#b72732" d="M3.5,22.51h-1a2.00587,2.00587,0,0,0-2,2v7h1v-7A2.00587,2.00587,0,0,1,3.5,22.51Z"/><path fill="#fdc475" d="M13.5,27.01a1.498,1.498,0,0,1-1.5,1.5H10.5v-3H12A1.498,1.498,0,0,1,13.5,27.01Z"/><path fill="#58565d" d="M22.51457,24.5112l-1.96816-.35545,1.95495-9.82489,1.96816.35545a1,1,0,0,1,.80636,1.1618l-1.5995,7.85673A1,1,0,0,1,22.51457,24.5112Z"/><path fill="#58565d" d="M22.51457,24.5112l-1.96816-.35545,1.95495-9.82489,1.96816.35545a1,1,0,0,1,.80636,1.1618l-1.5995,7.85673A1,1,0,0,1,22.51457,24.5112Z"/><polygon fill="#3c3b41" points="25.59 19.21 24.86 22.83 24.11 21.58 24.87 17.86 25.59 19.21"/><path fill="#3c3b41" d="M21.54639,24.15576l1.92029-9.65057-.96533-.17432-1.955,9.82489,1.9682.35541a.9723.9723,0,0,0,.55927-.07959Z"/><path fill="#58565d" d="M23.5,26.5099h6a0,0,0,0,1,0,0v2a0,0,0,0,1,0,0h-7a0,0,0,0,1,0,0v-1A1,1,0,0,1,23.5,26.5099Z"/><path fill="#3c3b41" d="M24.5,26.50989h-1a1,1,0,0,0-1,1v1h1v-1A1,1,0,0,1,24.5,26.50989Z"/><path fill="#b72732" d="M9.5,30.00488a.49847.49847,0,0,1-.2998-.1001l-5-4a.4998.4998,0,1,1,.59961-.7998l5,4a.49977.49977,0,0,1-.2998.8999Z"/><path fill="#4ebaea" d="M5.5,28.5099h26a0,0,0,0,1,0,0v1a2,2,0,0,1-2,2H5.5a0,0,0,0,1,0,0v-3A0,0,0,0,1,5.5,28.5099Z"/><path fill="#fdc475" d="M6.5,16.5v3a2,2,0,0,1-2,2h-1a2,2,0,0,1-2-2v-3Z"/><path fill="#faa827" d="M2.5,19.5v-3h-1v3a2,2,0,0,0,2,2h1A2,2,0,0,1,2.5,19.5Z"/><path fill="#58565d" d="M1.5,18.5h1a1,1,0,0,0,1-1h0a1,1,0,0,1,1-1h2v-3l-.84183.89232a1,1,0,0,1-.78788.31194l-2.30979-.14A1,1,0,0,0,1.5,15.56244V18.5Z"/><path fill="#3c3b41" d="M2.5,15.56244a.98637.98637,0,0,1,.76941-.9552l-.70892-.043A1,1,0,0,0,1.5,15.56244V18.5h1V15.56244Z"/></svg>