<svg id="svg" version="1.1" xmlns="http://www.w3.org/2000/svg" xmlns:xlink="http://www.w3.org/1999/xlink" width="400" height="346.9158878504673" viewBox="0, 0, 400,346.9158878504673"><g id="svgg"><path id="path0" d="M292.628 33.636 C 292.246 33.796,289.962 34.104,287.551 34.320 C 285.140 34.536,281.783 34.948,280.092 35.236 C 273.818 36.303,266.236 37.875,265.224 38.319 C 264.650 38.570,262.566 39.195,260.594 39.707 C 252.420 41.828,234.283 49.262,229.298 52.535 C 228.620 52.980,227.274 53.745,226.307 54.235 C 220.571 57.142,207.453 66.617,200.919 72.573 C 197.947 75.283,198.535 75.338,193.888 71.908 C 192.480 70.868,190.312 69.452,189.072 68.760 C 187.832 68.068,186.535 67.242,186.190 66.925 C 185.846 66.607,184.519 65.799,183.242 65.128 C 178.940 62.868,178.492 62.620,178.318 62.401 C 177.895 61.871,165.911 56.107,162.162 54.630 C 159.885 53.734,157.866 52.880,157.676 52.733 C 157.226 52.386,147.292 49.074,145.707 48.743 C 145.039 48.603,144.335 48.363,144.143 48.209 C 143.502 47.696,136.863 46.167,130.756 45.126 C 125.222 44.183,122.544 43.818,115.178 43.007 C 111.720 42.626,101.480 42.637,98.005 43.025 C 89.653 43.957,84.339 44.799,78.578 46.101 C 64.923 49.186,45.824 58.232,35.212 66.638 C 34.258 67.394,32.599 68.672,31.524 69.479 C 24.251 74.938,16.014 82.829,14.538 85.754 L 13.530 87.751 13.530 195.341 C 13.530 295.337,13.571 303.017,14.112 304.158 C 16.241 308.644,20.177 311.015,25.499 311.015 C 29.562 311.015,29.469 311.041,35.559 308.211 C 37.249 307.427,46.625 304.250,47.252 304.250 C 47.425 304.250,48.227 303.949,49.035 303.581 C 50.670 302.836,56.807 301.297,63.660 299.913 C 66.141 299.412,68.482 298.867,68.864 298.701 C 69.842 298.276,77.125 297.203,84.128 296.453 C 93.882 295.407,112.041 295.243,122.390 296.107 C 129.980 296.741,141.311 298.220,142.164 298.689 C 142.491 298.868,145.490 299.574,148.829 300.257 C 157.340 301.998,172.446 306.361,176.236 308.173 C 177.543 308.798,185.744 312.037,187.598 312.660 C 188.218 312.869,188.725 313.157,188.725 313.302 C 188.725 314.415,196.275 316.470,199.819 316.322 C 203.259 316.177,208.660 314.484,209.540 313.274 C 209.716 313.032,213.359 311.576,218.374 309.744 C 219.893 309.189,221.220 308.622,221.323 308.482 C 221.512 308.226,229.833 305.481,233.651 304.415 C 234.796 304.095,235.811 303.712,235.906 303.562 C 236.095 303.266,248.253 300.355,252.732 299.533 C 254.258 299.253,255.820 298.885,256.201 298.715 C 257.277 298.236,258.221 298.078,265.432 297.167 C 284.784 294.723,311.470 295.157,326.453 298.159 C 335.645 300.000,348.259 302.985,349.291 303.562 C 349.609 303.741,352.476 304.743,355.660 305.790 C 358.845 306.836,362.748 308.302,364.333 309.047 C 371.674 312.494,377.649 311.901,381.772 307.315 C 384.850 303.891,384.562 315.501,384.562 194.970 L 384.562 88.291 383.774 86.343 C 383.002 84.435,374.488 75.556,371.899 73.960 C 371.422 73.666,370.330 72.761,369.471 71.950 C 366.751 69.379,356.167 61.939,352.212 59.817 L 350.390 58.840 350.390 52.033 C 350.390 43.176,350.160 42.315,346.942 39.144 C 344.112 36.355,343.237 36.042,335.522 35.051 C 332.537 34.668,328.846 34.172,327.320 33.950 C 324.033 33.471,293.674 33.196,292.628 33.636 M317.232 57.891 C 317.334 58.057,319.295 58.305,321.588 58.442 L 325.759 58.691 325.759 149.999 L 325.759 241.308 316.878 241.167 C 301.839 240.928,282.004 242.945,274.935 245.432 C 274.172 245.701,271.440 246.470,268.864 247.141 C 263.930 248.427,260.363 249.533,258.630 250.314 C 258.057 250.572,256.028 251.356,254.120 252.057 C 250.379 253.430,243.018 256.684,239.376 258.574 C 233.804 261.466,230.750 263.143,229.141 264.194 C 228.187 264.818,226.554 265.827,225.511 266.437 C 223.634 267.535,215.616 273.207,213.443 274.974 L 212.316 275.891 212.316 186.045 L 212.316 96.199 215.525 93.110 C 219.111 89.658,224.728 85.055,227.493 83.302 C 228.495 82.667,229.315 82.045,229.315 81.918 C 229.315 81.792,230.212 81.155,231.310 80.504 C 232.407 79.852,234.553 78.516,236.080 77.535 C 239.531 75.317,248.103 70.836,251.344 69.556 C 252.680 69.029,254.634 68.176,255.687 67.661 C 257.443 66.801,262.462 65.123,267.650 63.661 C 268.794 63.338,269.887 62.951,270.078 62.801 C 271.359 61.792,288.846 58.808,295.850 58.402 C 298.003 58.278,299.847 58.044,299.946 57.882 C 300.187 57.493,316.991 57.502,317.232 57.891 M114.501 68.006 C 122.064 68.585,134.363 70.821,137.207 72.135 C 137.589 72.311,140.399 73.257,143.452 74.238 C 146.505 75.218,150.252 76.612,151.778 77.334 C 153.304 78.056,156.114 79.327,158.023 80.158 C 159.931 80.989,161.726 81.850,162.012 82.071 C 162.298 82.292,163.859 83.140,165.481 83.955 C 167.103 84.770,169.133 85.885,169.991 86.432 C 170.850 86.979,173.136 88.402,175.071 89.594 C 179.419 92.271,184.820 95.920,185.863 96.884 L 186.644 97.606 186.644 191.561 C 186.644 243.236,186.593 285.516,186.532 285.516 C 186.168 285.516,182.935 284.325,182.609 284.071 C 182.047 283.633,177.087 281.991,172.243 280.640 C 169.955 280.001,168.005 279.376,167.910 279.250 C 167.540 278.762,150.433 274.907,143.278 273.699 C 123.776 270.408,99.659 269.842,78.751 272.183 C 71.975 272.942,64.788 274.028,64.145 274.390 C 63.839 274.563,62.824 274.812,61.890 274.944 C 57.706 275.536,44.899 278.501,43.192 279.273 C 42.810 279.446,41.483 279.888,40.243 280.256 L 37.988 280.924 37.893 189.291 C 37.841 138.893,37.885 97.346,37.990 96.964 C 38.185 96.258,45.523 89.895,48.049 88.242 C 48.812 87.742,49.599 87.134,49.798 86.890 C 49.997 86.646,51.715 85.478,53.614 84.295 C 55.514 83.111,57.153 82.009,57.255 81.846 C 57.461 81.519,59.591 80.337,63.313 78.485 C 64.649 77.820,65.820 77.178,65.915 77.059 C 66.183 76.726,69.510 75.358,73.721 73.851 C 75.820 73.100,78.035 72.252,78.645 71.968 C 81.790 70.502,90.767 68.776,99.913 67.880 C 102.682 67.608,110.142 67.673,114.501 68.006 M355.854 92.937 L 360.104 96.894 360.104 188.901 L 360.104 280.908 357.589 280.225 C 356.206 279.848,354.904 279.404,354.696 279.236 C 354.201 278.838,344.034 276.401,338.942 275.460 C 336.748 275.054,334.562 274.576,334.085 274.397 C 331.143 273.292,313.617 271.397,301.961 270.924 C 293.605 270.585,276.543 270.946,274.501 271.506 C 274.072 271.624,273.721 271.645,273.721 271.553 C 273.721 271.461,274.853 271.112,276.236 270.777 C 277.619 270.442,278.829 270.055,278.925 269.917 C 279.197 269.521,287.592 267.906,293.322 267.147 C 307.260 265.300,320.957 265.301,332.618 267.148 C 342.150 268.659,347.336 266.594,349.668 260.360 L 350.390 258.430 350.390 173.232 C 350.390 92.141,350.420 88.056,350.997 88.507 C 351.331 88.767,353.517 90.761,355.854 92.937 " stroke="none" fill="#f7f9fa" fill-rule="evenodd"></path><path id="path1" d="" stroke="none" fill="#08446c" fill-rule="evenodd"></path><path id="path2" d="" stroke="none" fill="#08446c" fill-rule="evenodd"></path><path id="path3" d="" stroke="none" fill="#08446c" fill-rule="evenodd"></path><path id="path4" d="" stroke="none" fill="#08446c" fill-rule="evenodd"></path></g></svg>