<?xml version="1.0" standalone="no"?>
<!DOCTYPE svg PUBLIC "-//W3C//DTD SVG 20010904//EN"
 "http://www.w3.org/TR/2001/REC-SVG-20010904/DTD/svg10.dtd">
<svg version="1.0" xmlns="http://www.w3.org/2000/svg"
 width="400.000000pt" height="84.000000pt" viewBox="0 0 400.000000 84.000000"
 preserveAspectRatio="xMidYMid meet">

<g transform="translate(0.000000,84.000000) scale(0.100000,-0.100000)"
fill="#ffffff" stroke="none">
<path d="M590 649 c-24 -11 -52 -26 -60 -34 -14 -12 -23 -11 -68 12 -85 42
-180 32 -244 -25 -16 -13 -18 -37 -18 -203 0 -103 4 -190 8 -193 5 -3 30 1 57
9 64 20 129 18 194 -4 52 -18 55 -18 107 0 63 22 133 24 197 5 32 -10 49 -10
56 -3 7 7 11 74 11 184 l0 172 -28 33 c-16 18 -31 41 -35 51 -9 25 -117 23
-177 -4z m138 -171 l2 -156 -50 -7 c-28 -4 -72 -18 -98 -31 -26 -13 -48 -24
-50 -24 -1 0 -1 70 0 156 l3 157 27 20 c29 22 112 47 143 44 19 -2 20 -10 23
-159z m-282 116 l39 -19 3 -166 2 -166 -67 14 c-62 13 -108 12 -171 -4 l-23
-5 3 163 3 162 45 24 c52 28 104 27 166 -3z m344 -185 l0 -160 -37 8 c-21 4
-57 7 -81 7 -63 -2 -43 8 30 15 l63 6 3 148 c4 204 22 184 22 -24z"/>
<path d="M2080 535 c0 -30 -2 -55 -5 -55 -3 0 -17 7 -30 16 -48 31 -108 -2
-126 -68 -26 -99 71 -187 148 -133 18 13 22 13 33 0 7 -8 26 -15 42 -15 30 0
30 0 23 43 -4 23 -9 93 -11 155 l-5 112 -35 0 -34 0 0 -55z m-18 -112 c35 -31
13 -78 -34 -71 -27 4 -37 50 -17 74 15 18 28 18 51 -3z"/>
<path d="M980 545 c0 -34 1 -35 40 -35 l39 0 3 -112 3 -113 37 -3 37 -3 3 113
3 113 43 3 c41 3 42 4 42 38 l0 34 -125 0 -125 0 0 -35z"/>
<path d="M2210 440 c0 -77 -1 -143 -2 -147 -2 -5 45 -9 105 -11 l107 -3 0 36
0 35 -65 0 -65 0 0 115 0 115 -40 0 -40 0 0 -140z"/>
<path d="M1347 490 c-22 -18 -27 -19 -27 -6 0 12 -10 16 -35 16 l-35 0 0 -111
0 -110 38 3 37 3 5 69 c5 69 5 70 38 78 30 8 33 12 30 40 -4 40 -17 44 -51 18z"/>
<path d="M1463 499 c-39 -11 -47 -23 -33 -49 9 -16 15 -18 30 -10 29 16 80 13
80 -5 0 -11 -12 -15 -45 -15 -77 0 -115 -71 -63 -120 26 -24 58 -26 97 -5 26
13 30 13 41 0 7 -8 26 -15 42 -15 29 0 30 1 24 38 -3 20 -9 63 -14 96 -8 59
-18 72 -67 88 -28 9 -55 8 -92 -3z m80 -126 c10 -10 -13 -33 -34 -33 -21 0
-33 15 -24 30 7 11 48 14 58 3z"/>
<path d="M1768 496 c-16 -8 -28 -11 -28 -5 0 5 -16 9 -35 9 l-35 0 0 -111 0
-110 37 3 37 3 -3 56 c-2 43 2 61 17 79 17 21 22 22 36 11 12 -10 16 -31 16
-83 l0 -69 38 3 37 3 0 94 c0 85 -2 95 -24 112 -28 23 -56 24 -93 5z"/>
<path d="M2493 495 c-66 -28 -82 -130 -30 -183 45 -45 144 -39 186 12 11 13 8
16 -21 24 -20 6 -38 5 -45 0 -16 -13 -55 -6 -61 10 -3 9 16 12 72 12 70 0 76
2 76 20 0 42 -27 86 -63 103 -42 20 -71 21 -114 2z m85 -62 c2 -9 -8 -13 -33
-13 -33 0 -36 2 -25 15 15 18 51 16 58 -2z"/>
<path d="M2740 503 c-31 -12 -50 -37 -50 -68 0 -37 10 -48 62 -64 47 -15 63
-36 22 -28 -16 3 -38 8 -50 12 -15 5 -23 0 -31 -18 -11 -23 -9 -27 24 -42 40
-19 112 -16 138 5 9 7 15 29 15 51 0 41 -19 58 -82 73 -16 3 -28 11 -28 16 0
14 44 12 59 -2 10 -11 15 -9 27 7 18 24 14 37 -17 52 -25 13 -63 16 -89 6z"/>
<path d="M2940 498 c-14 -8 -31 -26 -38 -41 -18 -38 2 -69 57 -87 23 -7 44
-17 47 -22 8 -12 -44 -10 -67 3 -17 8 -23 7 -35 -8 -20 -27 -18 -33 21 -49 41
-17 88 -18 118 -3 30 16 37 28 37 66 0 34 -22 52 -82 67 -33 8 -38 31 -5 23
12 -2 29 -7 37 -11 9 -4 20 2 28 15 12 18 12 24 0 35 -20 20 -89 27 -118 12z"/>
<path d="M3160 492 c-41 -20 -60 -53 -60 -104 0 -117 181 -149 227 -41 34 83
-25 163 -121 163 -6 0 -27 -8 -46 -18z m76 -60 c18 -12 24 -42 14 -63 -20 -36
-70 -17 -70 26 0 35 30 55 56 37z"/>
<path d="M3468 496 c-16 -8 -28 -11 -28 -5 0 5 -16 9 -35 9 l-35 0 0 -110 0
-110 35 0 35 0 0 59 c0 71 26 115 54 92 12 -10 16 -31 16 -83 l0 -69 38 3 37
3 0 94 c0 85 -2 95 -24 112 -28 23 -56 24 -93 5z"/>
<path d="M3670 503 c-32 -12 -50 -37 -50 -68 0 -36 9 -45 60 -65 52 -20 61
-33 20 -28 -19 3 -42 8 -51 12 -11 5 -19 -1 -27 -19 -11 -24 -10 -27 23 -41
41 -17 88 -18 118 -3 30 16 37 28 37 66 0 34 -22 52 -82 67 -33 8 -38 31 -5
23 12 -2 29 -7 37 -11 9 -4 20 2 28 15 12 18 12 24 0 35 -15 15 -85 26 -108
17z"/>
</g>
</svg>
