<svg xmlns="http://www.w3.org/2000/svg" xmlns:xlink="http://www.w3.org/1999/xlink" width="200px" height="60px" viewBox="0 0 250 70">
    <defs>
        <style>.cls-1,.cls-5{fill:#ffffff;}.cls-2,.cls-3{fill:#ffffff;}.cls-3{font-size:12px;font-family:Nunito;letter-spacing:0.08em;}.cls-4{fill:none;stroke:#ffffff;stroke-miterlimit:10;}.cls-5{font-size:35.64px;font-family:Verdana-Bold, Verdana;font-weight:700;}</style>
    </defs>
    <title>trand logo</title>
    <path class="cls-1" d="M84.14,25H76.06V45.84H69.39V25H61.31V20H84.14Z"/>
    <path class="cls-1" d="M112.26,45.84h-8.15l-7-9.48H94v9.48H87.35V20H98.54a26.13,26.13,0,0,1,3.94.26,8.59,8.59,0,0,1,3.09,1.13,6.67,6.67,0,0,1,2.32,2.25,6.4,6.4,0,0,1,.86,3.47,7.71,7.71,0,0,1-1.32,4.67,10.07,10.07,0,0,1-3.8,3ZM101.86,27.9a3.35,3.35,0,0,0-.4-1.67,2.7,2.7,0,0,0-1.38-1.1,5.43,5.43,0,0,0-1.58-.34q-.9-.06-2.1-.06H94v7H96a18.19,18.19,0,0,0,2.67-.16,3.81,3.81,0,0,0,1.81-.71,3.39,3.39,0,0,0,1-1.19A3.85,3.85,0,0,0,101.86,27.9Z"/>
    <path class="cls-2" d="M36.3,57.36a7.85,7.85,0,0,0,.09,1.19H25V46.93h6.1L23,25.57,14.83,46.93h6.1V58.55H9.9A7.85,7.85,0,0,0,10,57.36a7.77,7.77,0,0,0-5-7.27l12.18-33h12.3L41.7,50.3C39,51.52,36.3,54.22,36.3,57.36Z"/>
    <path class="cls-1" d="M164.32,45.84H157.9l-11-17.75V45.84H140.8V20h8l9.44,14.82V20h6.11Z"/>
    <path class="cls-1" d="M193.49,32.93a12.75,12.75,0,0,1-1.65,6.48,12.05,12.05,0,0,1-4.17,4.38,12.71,12.71,0,0,1-4.16,1.6,27.62,27.62,0,0,1-5.35.45H169V20h9.38a24.74,24.74,0,0,1,5.46.53A12.91,12.91,0,0,1,187.74,22a11.63,11.63,0,0,1,4.21,4.4A13.18,13.18,0,0,1,193.49,32.93Zm-6.9,0a9.49,9.49,0,0,0-.93-4.37,6.53,6.53,0,0,0-2.94-2.84,7.92,7.92,0,0,0-2.1-.68,19.63,19.63,0,0,0-3.22-.19h-1.69V41h1.69a20.45,20.45,0,0,0,3.49-.22,7.78,7.78,0,0,0,2.17-.79,6.48,6.48,0,0,0,2.68-2.79A9.75,9.75,0,0,0,186.59,32.88Z"/>
    <text class="cls-3" transform="translate(61.4 55.91)">Improving Your Grades</text>
    <line class="cls-4" x1="49.67" y1="16.35" x2="49.67" y2="58.85"/><text class="cls-5" transform="translate(113.05 45.91) scale(0.96 1)">A</text>
</svg>
